<mxfile host="Electron" modified="2024-05-13T14:40:47.321Z" agent="Mozilla/5.0 (Macintosh; Intel Mac OS X 10_15_7) AppleWebKit/537.36 (KHTML, like Gecko) draw.io/22.1.18 Chrome/120.0.6099.199 Electron/28.1.2 Safari/537.36" etag="vtAr70BMDFvIEt8ZgO7G" version="22.1.18" type="device">
  <diagram name="第 1 页" id="9g8P3RWRX6Sg8x3JM8hz">
    <mxGraphModel dx="1136" dy="735" grid="0" gridSize="10" guides="1" tooltips="1" connect="1" arrows="1" fold="1" page="1" pageScale="1" pageWidth="827" pageHeight="1169" math="0" shadow="0">
      <root>
        <mxCell id="0" />
        <mxCell id="1" parent="0" />
        <mxCell id="YWq82JBdALTGHb2d7kdh-409" value="" style="rounded=0;whiteSpace=wrap;html=1;strokeColor=none;fillColor=none;" parent="1" vertex="1">
          <mxGeometry x="8" y="40" width="1058" height="455" as="geometry" />
        </mxCell>
        <mxCell id="YWq82JBdALTGHb2d7kdh-141" value="" style="rounded=0;whiteSpace=wrap;html=1;" parent="1" vertex="1">
          <mxGeometry x="34" y="110" width="281" height="350" as="geometry" />
        </mxCell>
        <mxCell id="YWq82JBdALTGHb2d7kdh-51" value="" style="rounded=0;whiteSpace=wrap;html=1;fillColor=#fff2cc;strokeColor=#d6b656;" parent="1" vertex="1">
          <mxGeometry x="53" y="178" width="248" height="91" as="geometry" />
        </mxCell>
        <mxCell id="YWq82JBdALTGHb2d7kdh-1" value="&lt;b&gt;&lt;font style=&quot;font-size: 14px;&quot; face=&quot;Verdana&quot;&gt;CPU&lt;/font&gt;&lt;/b&gt;" style="rounded=0;whiteSpace=wrap;html=1;fillColor=#f5f5f5;strokeColor=#666666;fontColor=#333333;" parent="1" vertex="1">
          <mxGeometry x="83" y="202" width="69" height="48" as="geometry" />
        </mxCell>
        <mxCell id="YWq82JBdALTGHb2d7kdh-2" value="" style="endArrow=none;html=1;rounded=0;" parent="1" edge="1">
          <mxGeometry width="50" height="50" relative="1" as="geometry">
            <mxPoint x="152" y="212" as="sourcePoint" />
            <mxPoint x="170" y="212" as="targetPoint" />
          </mxGeometry>
        </mxCell>
        <mxCell id="YWq82JBdALTGHb2d7kdh-3" value="" style="endArrow=none;html=1;rounded=0;" parent="1" edge="1">
          <mxGeometry width="50" height="50" relative="1" as="geometry">
            <mxPoint x="152" y="218" as="sourcePoint" />
            <mxPoint x="170" y="218" as="targetPoint" />
          </mxGeometry>
        </mxCell>
        <mxCell id="YWq82JBdALTGHb2d7kdh-4" value="" style="endArrow=none;html=1;rounded=0;" parent="1" edge="1">
          <mxGeometry width="50" height="50" relative="1" as="geometry">
            <mxPoint x="152" y="225" as="sourcePoint" />
            <mxPoint x="170" y="225" as="targetPoint" />
          </mxGeometry>
        </mxCell>
        <mxCell id="YWq82JBdALTGHb2d7kdh-5" value="" style="endArrow=none;html=1;rounded=0;" parent="1" edge="1">
          <mxGeometry width="50" height="50" relative="1" as="geometry">
            <mxPoint x="152" y="231" as="sourcePoint" />
            <mxPoint x="170" y="231" as="targetPoint" />
          </mxGeometry>
        </mxCell>
        <mxCell id="YWq82JBdALTGHb2d7kdh-6" value="" style="endArrow=none;html=1;rounded=0;" parent="1" edge="1">
          <mxGeometry width="50" height="50" relative="1" as="geometry">
            <mxPoint x="152" y="238" as="sourcePoint" />
            <mxPoint x="170" y="238" as="targetPoint" />
          </mxGeometry>
        </mxCell>
        <mxCell id="YWq82JBdALTGHb2d7kdh-7" value="" style="endArrow=none;html=1;rounded=0;" parent="1" edge="1">
          <mxGeometry width="50" height="50" relative="1" as="geometry">
            <mxPoint x="65" y="212.82999999999998" as="sourcePoint" />
            <mxPoint x="83" y="212.82999999999998" as="targetPoint" />
          </mxGeometry>
        </mxCell>
        <mxCell id="YWq82JBdALTGHb2d7kdh-8" value="" style="endArrow=none;html=1;rounded=0;" parent="1" edge="1">
          <mxGeometry width="50" height="50" relative="1" as="geometry">
            <mxPoint x="65" y="218.82999999999998" as="sourcePoint" />
            <mxPoint x="83" y="218.82999999999998" as="targetPoint" />
          </mxGeometry>
        </mxCell>
        <mxCell id="YWq82JBdALTGHb2d7kdh-9" value="" style="endArrow=none;html=1;rounded=0;" parent="1" edge="1">
          <mxGeometry width="50" height="50" relative="1" as="geometry">
            <mxPoint x="65" y="225.82999999999998" as="sourcePoint" />
            <mxPoint x="83" y="225.82999999999998" as="targetPoint" />
          </mxGeometry>
        </mxCell>
        <mxCell id="YWq82JBdALTGHb2d7kdh-10" value="" style="endArrow=none;html=1;rounded=0;" parent="1" edge="1">
          <mxGeometry width="50" height="50" relative="1" as="geometry">
            <mxPoint x="65" y="231.82999999999998" as="sourcePoint" />
            <mxPoint x="83" y="231.82999999999998" as="targetPoint" />
          </mxGeometry>
        </mxCell>
        <mxCell id="YWq82JBdALTGHb2d7kdh-11" value="" style="endArrow=none;html=1;rounded=0;" parent="1" edge="1">
          <mxGeometry width="50" height="50" relative="1" as="geometry">
            <mxPoint x="65" y="238.82999999999998" as="sourcePoint" />
            <mxPoint x="83" y="238.82999999999998" as="targetPoint" />
          </mxGeometry>
        </mxCell>
        <mxCell id="YWq82JBdALTGHb2d7kdh-17" value="" style="endArrow=none;html=1;rounded=0;" parent="1" edge="1">
          <mxGeometry width="50" height="50" relative="1" as="geometry">
            <mxPoint x="133.36" y="266" as="sourcePoint" />
            <mxPoint x="133.36" y="250" as="targetPoint" />
          </mxGeometry>
        </mxCell>
        <mxCell id="YWq82JBdALTGHb2d7kdh-18" value="" style="endArrow=none;html=1;rounded=0;" parent="1" edge="1">
          <mxGeometry width="50" height="50" relative="1" as="geometry">
            <mxPoint x="125.36000000000001" y="266" as="sourcePoint" />
            <mxPoint x="125.36000000000001" y="250" as="targetPoint" />
          </mxGeometry>
        </mxCell>
        <mxCell id="YWq82JBdALTGHb2d7kdh-19" value="" style="endArrow=none;html=1;rounded=0;" parent="1" edge="1">
          <mxGeometry width="50" height="50" relative="1" as="geometry">
            <mxPoint x="117.36000000000001" y="266" as="sourcePoint" />
            <mxPoint x="117.36000000000001" y="250" as="targetPoint" />
          </mxGeometry>
        </mxCell>
        <mxCell id="YWq82JBdALTGHb2d7kdh-20" value="" style="endArrow=none;html=1;rounded=0;" parent="1" edge="1">
          <mxGeometry width="50" height="50" relative="1" as="geometry">
            <mxPoint x="109.36000000000001" y="266" as="sourcePoint" />
            <mxPoint x="109.36000000000001" y="250" as="targetPoint" />
          </mxGeometry>
        </mxCell>
        <mxCell id="YWq82JBdALTGHb2d7kdh-21" value="" style="endArrow=none;html=1;rounded=0;" parent="1" edge="1">
          <mxGeometry width="50" height="50" relative="1" as="geometry">
            <mxPoint x="101.36000000000001" y="266" as="sourcePoint" />
            <mxPoint x="101.36000000000001" y="250" as="targetPoint" />
          </mxGeometry>
        </mxCell>
        <mxCell id="YWq82JBdALTGHb2d7kdh-25" value="" style="endArrow=none;html=1;rounded=0;" parent="1" edge="1">
          <mxGeometry width="50" height="50" relative="1" as="geometry">
            <mxPoint x="133.36" y="202" as="sourcePoint" />
            <mxPoint x="133.36" y="186" as="targetPoint" />
          </mxGeometry>
        </mxCell>
        <mxCell id="YWq82JBdALTGHb2d7kdh-26" value="" style="endArrow=none;html=1;rounded=0;" parent="1" edge="1">
          <mxGeometry width="50" height="50" relative="1" as="geometry">
            <mxPoint x="125.36000000000001" y="202" as="sourcePoint" />
            <mxPoint x="125.36000000000001" y="186" as="targetPoint" />
          </mxGeometry>
        </mxCell>
        <mxCell id="YWq82JBdALTGHb2d7kdh-27" value="" style="endArrow=none;html=1;rounded=0;" parent="1" edge="1">
          <mxGeometry width="50" height="50" relative="1" as="geometry">
            <mxPoint x="117.36000000000001" y="202" as="sourcePoint" />
            <mxPoint x="117.36000000000001" y="186" as="targetPoint" />
          </mxGeometry>
        </mxCell>
        <mxCell id="YWq82JBdALTGHb2d7kdh-28" value="" style="endArrow=none;html=1;rounded=0;" parent="1" edge="1">
          <mxGeometry width="50" height="50" relative="1" as="geometry">
            <mxPoint x="109.36000000000001" y="202" as="sourcePoint" />
            <mxPoint x="109.36000000000001" y="186" as="targetPoint" />
          </mxGeometry>
        </mxCell>
        <mxCell id="YWq82JBdALTGHb2d7kdh-29" value="" style="endArrow=none;html=1;rounded=0;" parent="1" edge="1">
          <mxGeometry width="50" height="50" relative="1" as="geometry">
            <mxPoint x="101.36000000000001" y="202" as="sourcePoint" />
            <mxPoint x="101.36000000000001" y="186" as="targetPoint" />
          </mxGeometry>
        </mxCell>
        <mxCell id="YWq82JBdALTGHb2d7kdh-30" value="&lt;b&gt;&lt;font style=&quot;font-size: 14px;&quot; face=&quot;Verdana&quot;&gt;CPU&lt;/font&gt;&lt;/b&gt;" style="rounded=0;whiteSpace=wrap;html=1;fillColor=#f5f5f5;strokeColor=#666666;fontColor=#333333;" parent="1" vertex="1">
          <mxGeometry x="201" y="202" width="69" height="48" as="geometry" />
        </mxCell>
        <mxCell id="YWq82JBdALTGHb2d7kdh-31" value="" style="endArrow=none;html=1;rounded=0;" parent="1" edge="1">
          <mxGeometry width="50" height="50" relative="1" as="geometry">
            <mxPoint x="270" y="212" as="sourcePoint" />
            <mxPoint x="288" y="212" as="targetPoint" />
          </mxGeometry>
        </mxCell>
        <mxCell id="YWq82JBdALTGHb2d7kdh-32" value="" style="endArrow=none;html=1;rounded=0;" parent="1" edge="1">
          <mxGeometry width="50" height="50" relative="1" as="geometry">
            <mxPoint x="270" y="218" as="sourcePoint" />
            <mxPoint x="288" y="218" as="targetPoint" />
          </mxGeometry>
        </mxCell>
        <mxCell id="YWq82JBdALTGHb2d7kdh-33" value="" style="endArrow=none;html=1;rounded=0;" parent="1" edge="1">
          <mxGeometry width="50" height="50" relative="1" as="geometry">
            <mxPoint x="270" y="225" as="sourcePoint" />
            <mxPoint x="288" y="225" as="targetPoint" />
          </mxGeometry>
        </mxCell>
        <mxCell id="YWq82JBdALTGHb2d7kdh-34" value="" style="endArrow=none;html=1;rounded=0;" parent="1" edge="1">
          <mxGeometry width="50" height="50" relative="1" as="geometry">
            <mxPoint x="270" y="231" as="sourcePoint" />
            <mxPoint x="288" y="231" as="targetPoint" />
          </mxGeometry>
        </mxCell>
        <mxCell id="YWq82JBdALTGHb2d7kdh-35" value="" style="endArrow=none;html=1;rounded=0;" parent="1" edge="1">
          <mxGeometry width="50" height="50" relative="1" as="geometry">
            <mxPoint x="270" y="238" as="sourcePoint" />
            <mxPoint x="288" y="238" as="targetPoint" />
          </mxGeometry>
        </mxCell>
        <mxCell id="YWq82JBdALTGHb2d7kdh-36" value="" style="endArrow=none;html=1;rounded=0;" parent="1" edge="1">
          <mxGeometry width="50" height="50" relative="1" as="geometry">
            <mxPoint x="183" y="212.82999999999998" as="sourcePoint" />
            <mxPoint x="201" y="212.82999999999998" as="targetPoint" />
          </mxGeometry>
        </mxCell>
        <mxCell id="YWq82JBdALTGHb2d7kdh-37" value="" style="endArrow=none;html=1;rounded=0;" parent="1" edge="1">
          <mxGeometry width="50" height="50" relative="1" as="geometry">
            <mxPoint x="183" y="218.82999999999998" as="sourcePoint" />
            <mxPoint x="201" y="218.82999999999998" as="targetPoint" />
          </mxGeometry>
        </mxCell>
        <mxCell id="YWq82JBdALTGHb2d7kdh-38" value="" style="endArrow=none;html=1;rounded=0;" parent="1" edge="1">
          <mxGeometry width="50" height="50" relative="1" as="geometry">
            <mxPoint x="183" y="225.82999999999998" as="sourcePoint" />
            <mxPoint x="201" y="225.82999999999998" as="targetPoint" />
          </mxGeometry>
        </mxCell>
        <mxCell id="YWq82JBdALTGHb2d7kdh-39" value="" style="endArrow=none;html=1;rounded=0;" parent="1" edge="1">
          <mxGeometry width="50" height="50" relative="1" as="geometry">
            <mxPoint x="183" y="231.82999999999998" as="sourcePoint" />
            <mxPoint x="201" y="231.82999999999998" as="targetPoint" />
          </mxGeometry>
        </mxCell>
        <mxCell id="YWq82JBdALTGHb2d7kdh-40" value="" style="endArrow=none;html=1;rounded=0;" parent="1" edge="1">
          <mxGeometry width="50" height="50" relative="1" as="geometry">
            <mxPoint x="183" y="238.82999999999998" as="sourcePoint" />
            <mxPoint x="201" y="238.82999999999998" as="targetPoint" />
          </mxGeometry>
        </mxCell>
        <mxCell id="YWq82JBdALTGHb2d7kdh-41" value="" style="endArrow=none;html=1;rounded=0;" parent="1" edge="1">
          <mxGeometry width="50" height="50" relative="1" as="geometry">
            <mxPoint x="251.36" y="266" as="sourcePoint" />
            <mxPoint x="251.36" y="250" as="targetPoint" />
          </mxGeometry>
        </mxCell>
        <mxCell id="YWq82JBdALTGHb2d7kdh-42" value="" style="endArrow=none;html=1;rounded=0;" parent="1" edge="1">
          <mxGeometry width="50" height="50" relative="1" as="geometry">
            <mxPoint x="243.36" y="266" as="sourcePoint" />
            <mxPoint x="243.36" y="250" as="targetPoint" />
          </mxGeometry>
        </mxCell>
        <mxCell id="YWq82JBdALTGHb2d7kdh-43" value="" style="endArrow=none;html=1;rounded=0;" parent="1" edge="1">
          <mxGeometry width="50" height="50" relative="1" as="geometry">
            <mxPoint x="235.36" y="266" as="sourcePoint" />
            <mxPoint x="235.36" y="250" as="targetPoint" />
          </mxGeometry>
        </mxCell>
        <mxCell id="YWq82JBdALTGHb2d7kdh-44" value="" style="endArrow=none;html=1;rounded=0;" parent="1" edge="1">
          <mxGeometry width="50" height="50" relative="1" as="geometry">
            <mxPoint x="227.36" y="266" as="sourcePoint" />
            <mxPoint x="227.36" y="250" as="targetPoint" />
          </mxGeometry>
        </mxCell>
        <mxCell id="YWq82JBdALTGHb2d7kdh-45" value="" style="endArrow=none;html=1;rounded=0;" parent="1" edge="1">
          <mxGeometry width="50" height="50" relative="1" as="geometry">
            <mxPoint x="219.36" y="266" as="sourcePoint" />
            <mxPoint x="219.36" y="250" as="targetPoint" />
          </mxGeometry>
        </mxCell>
        <mxCell id="YWq82JBdALTGHb2d7kdh-46" value="" style="endArrow=none;html=1;rounded=0;" parent="1" edge="1">
          <mxGeometry width="50" height="50" relative="1" as="geometry">
            <mxPoint x="251.36" y="202" as="sourcePoint" />
            <mxPoint x="251.36" y="186" as="targetPoint" />
          </mxGeometry>
        </mxCell>
        <mxCell id="YWq82JBdALTGHb2d7kdh-47" value="" style="endArrow=none;html=1;rounded=0;" parent="1" edge="1">
          <mxGeometry width="50" height="50" relative="1" as="geometry">
            <mxPoint x="243.36" y="202" as="sourcePoint" />
            <mxPoint x="243.36" y="186" as="targetPoint" />
          </mxGeometry>
        </mxCell>
        <mxCell id="YWq82JBdALTGHb2d7kdh-48" value="" style="endArrow=none;html=1;rounded=0;" parent="1" edge="1">
          <mxGeometry width="50" height="50" relative="1" as="geometry">
            <mxPoint x="235.36" y="202" as="sourcePoint" />
            <mxPoint x="235.36" y="186" as="targetPoint" />
          </mxGeometry>
        </mxCell>
        <mxCell id="YWq82JBdALTGHb2d7kdh-49" value="" style="endArrow=none;html=1;rounded=0;" parent="1" edge="1">
          <mxGeometry width="50" height="50" relative="1" as="geometry">
            <mxPoint x="227.36" y="202" as="sourcePoint" />
            <mxPoint x="227.36" y="186" as="targetPoint" />
          </mxGeometry>
        </mxCell>
        <mxCell id="YWq82JBdALTGHb2d7kdh-50" value="" style="endArrow=none;html=1;rounded=0;" parent="1" edge="1">
          <mxGeometry width="50" height="50" relative="1" as="geometry">
            <mxPoint x="219.36" y="202" as="sourcePoint" />
            <mxPoint x="219.36" y="186" as="targetPoint" />
          </mxGeometry>
        </mxCell>
        <mxCell id="YWq82JBdALTGHb2d7kdh-55" value="" style="rounded=0;whiteSpace=wrap;html=1;fillColor=#fff2cc;strokeColor=#d6b656;" parent="1" vertex="1">
          <mxGeometry x="53" y="269" width="248" height="87" as="geometry" />
        </mxCell>
        <mxCell id="YWq82JBdALTGHb2d7kdh-56" value="&lt;b&gt;&lt;font style=&quot;font-size: 14px;&quot; face=&quot;Verdana&quot;&gt;CPU&lt;/font&gt;&lt;/b&gt;" style="rounded=0;whiteSpace=wrap;html=1;fillColor=#f5f5f5;strokeColor=#666666;fontColor=#333333;" parent="1" vertex="1">
          <mxGeometry x="83" y="289" width="69" height="48" as="geometry" />
        </mxCell>
        <mxCell id="YWq82JBdALTGHb2d7kdh-57" value="" style="endArrow=none;html=1;rounded=0;" parent="1" edge="1">
          <mxGeometry width="50" height="50" relative="1" as="geometry">
            <mxPoint x="152" y="299" as="sourcePoint" />
            <mxPoint x="170" y="299" as="targetPoint" />
          </mxGeometry>
        </mxCell>
        <mxCell id="YWq82JBdALTGHb2d7kdh-58" value="" style="endArrow=none;html=1;rounded=0;" parent="1" edge="1">
          <mxGeometry width="50" height="50" relative="1" as="geometry">
            <mxPoint x="152" y="305" as="sourcePoint" />
            <mxPoint x="170" y="305" as="targetPoint" />
          </mxGeometry>
        </mxCell>
        <mxCell id="YWq82JBdALTGHb2d7kdh-59" value="" style="endArrow=none;html=1;rounded=0;" parent="1" edge="1">
          <mxGeometry width="50" height="50" relative="1" as="geometry">
            <mxPoint x="152" y="312" as="sourcePoint" />
            <mxPoint x="170" y="312" as="targetPoint" />
          </mxGeometry>
        </mxCell>
        <mxCell id="YWq82JBdALTGHb2d7kdh-60" value="" style="endArrow=none;html=1;rounded=0;" parent="1" edge="1">
          <mxGeometry width="50" height="50" relative="1" as="geometry">
            <mxPoint x="152" y="318" as="sourcePoint" />
            <mxPoint x="170" y="318" as="targetPoint" />
          </mxGeometry>
        </mxCell>
        <mxCell id="YWq82JBdALTGHb2d7kdh-61" value="" style="endArrow=none;html=1;rounded=0;" parent="1" edge="1">
          <mxGeometry width="50" height="50" relative="1" as="geometry">
            <mxPoint x="152" y="325" as="sourcePoint" />
            <mxPoint x="170" y="325" as="targetPoint" />
          </mxGeometry>
        </mxCell>
        <mxCell id="YWq82JBdALTGHb2d7kdh-62" value="" style="endArrow=none;html=1;rounded=0;" parent="1" edge="1">
          <mxGeometry width="50" height="50" relative="1" as="geometry">
            <mxPoint x="65" y="299.83" as="sourcePoint" />
            <mxPoint x="83" y="299.83" as="targetPoint" />
          </mxGeometry>
        </mxCell>
        <mxCell id="YWq82JBdALTGHb2d7kdh-63" value="" style="endArrow=none;html=1;rounded=0;" parent="1" edge="1">
          <mxGeometry width="50" height="50" relative="1" as="geometry">
            <mxPoint x="65" y="305.83" as="sourcePoint" />
            <mxPoint x="83" y="305.83" as="targetPoint" />
          </mxGeometry>
        </mxCell>
        <mxCell id="YWq82JBdALTGHb2d7kdh-64" value="" style="endArrow=none;html=1;rounded=0;" parent="1" edge="1">
          <mxGeometry width="50" height="50" relative="1" as="geometry">
            <mxPoint x="65" y="312.83" as="sourcePoint" />
            <mxPoint x="83" y="312.83" as="targetPoint" />
          </mxGeometry>
        </mxCell>
        <mxCell id="YWq82JBdALTGHb2d7kdh-65" value="" style="endArrow=none;html=1;rounded=0;" parent="1" edge="1">
          <mxGeometry width="50" height="50" relative="1" as="geometry">
            <mxPoint x="65" y="318.83" as="sourcePoint" />
            <mxPoint x="83" y="318.83" as="targetPoint" />
          </mxGeometry>
        </mxCell>
        <mxCell id="YWq82JBdALTGHb2d7kdh-66" value="" style="endArrow=none;html=1;rounded=0;" parent="1" edge="1">
          <mxGeometry width="50" height="50" relative="1" as="geometry">
            <mxPoint x="65" y="325.83" as="sourcePoint" />
            <mxPoint x="83" y="325.83" as="targetPoint" />
          </mxGeometry>
        </mxCell>
        <mxCell id="YWq82JBdALTGHb2d7kdh-67" value="" style="endArrow=none;html=1;rounded=0;" parent="1" edge="1">
          <mxGeometry width="50" height="50" relative="1" as="geometry">
            <mxPoint x="133.36" y="353" as="sourcePoint" />
            <mxPoint x="133.36" y="337" as="targetPoint" />
          </mxGeometry>
        </mxCell>
        <mxCell id="YWq82JBdALTGHb2d7kdh-68" value="" style="endArrow=none;html=1;rounded=0;" parent="1" edge="1">
          <mxGeometry width="50" height="50" relative="1" as="geometry">
            <mxPoint x="125.36000000000001" y="353" as="sourcePoint" />
            <mxPoint x="125.36000000000001" y="337" as="targetPoint" />
          </mxGeometry>
        </mxCell>
        <mxCell id="YWq82JBdALTGHb2d7kdh-69" value="" style="endArrow=none;html=1;rounded=0;" parent="1" edge="1">
          <mxGeometry width="50" height="50" relative="1" as="geometry">
            <mxPoint x="117.36000000000001" y="353" as="sourcePoint" />
            <mxPoint x="117.36000000000001" y="337" as="targetPoint" />
          </mxGeometry>
        </mxCell>
        <mxCell id="YWq82JBdALTGHb2d7kdh-70" value="" style="endArrow=none;html=1;rounded=0;" parent="1" edge="1">
          <mxGeometry width="50" height="50" relative="1" as="geometry">
            <mxPoint x="109.36000000000001" y="353" as="sourcePoint" />
            <mxPoint x="109.36000000000001" y="337" as="targetPoint" />
          </mxGeometry>
        </mxCell>
        <mxCell id="YWq82JBdALTGHb2d7kdh-71" value="" style="endArrow=none;html=1;rounded=0;" parent="1" edge="1">
          <mxGeometry width="50" height="50" relative="1" as="geometry">
            <mxPoint x="101.36000000000001" y="353" as="sourcePoint" />
            <mxPoint x="101.36000000000001" y="337" as="targetPoint" />
          </mxGeometry>
        </mxCell>
        <mxCell id="YWq82JBdALTGHb2d7kdh-72" value="" style="endArrow=none;html=1;rounded=0;" parent="1" edge="1">
          <mxGeometry width="50" height="50" relative="1" as="geometry">
            <mxPoint x="133.36" y="289" as="sourcePoint" />
            <mxPoint x="133.36" y="273" as="targetPoint" />
          </mxGeometry>
        </mxCell>
        <mxCell id="YWq82JBdALTGHb2d7kdh-73" value="" style="endArrow=none;html=1;rounded=0;" parent="1" edge="1">
          <mxGeometry width="50" height="50" relative="1" as="geometry">
            <mxPoint x="125.36000000000001" y="289" as="sourcePoint" />
            <mxPoint x="125.36000000000001" y="273" as="targetPoint" />
          </mxGeometry>
        </mxCell>
        <mxCell id="YWq82JBdALTGHb2d7kdh-74" value="" style="endArrow=none;html=1;rounded=0;" parent="1" edge="1">
          <mxGeometry width="50" height="50" relative="1" as="geometry">
            <mxPoint x="117.36000000000001" y="289" as="sourcePoint" />
            <mxPoint x="117.36000000000001" y="273" as="targetPoint" />
          </mxGeometry>
        </mxCell>
        <mxCell id="YWq82JBdALTGHb2d7kdh-75" value="" style="endArrow=none;html=1;rounded=0;" parent="1" edge="1">
          <mxGeometry width="50" height="50" relative="1" as="geometry">
            <mxPoint x="109.36000000000001" y="289" as="sourcePoint" />
            <mxPoint x="109.36000000000001" y="273" as="targetPoint" />
          </mxGeometry>
        </mxCell>
        <mxCell id="YWq82JBdALTGHb2d7kdh-76" value="" style="endArrow=none;html=1;rounded=0;" parent="1" edge="1">
          <mxGeometry width="50" height="50" relative="1" as="geometry">
            <mxPoint x="101.36000000000001" y="289" as="sourcePoint" />
            <mxPoint x="101.36000000000001" y="273" as="targetPoint" />
          </mxGeometry>
        </mxCell>
        <mxCell id="YWq82JBdALTGHb2d7kdh-77" value="&lt;b&gt;&lt;font style=&quot;font-size: 14px;&quot; face=&quot;Verdana&quot;&gt;CPU&lt;/font&gt;&lt;/b&gt;" style="rounded=0;whiteSpace=wrap;html=1;fillColor=#f5f5f5;fontColor=#333333;strokeColor=#666666;" parent="1" vertex="1">
          <mxGeometry x="201" y="289" width="69" height="48" as="geometry" />
        </mxCell>
        <mxCell id="YWq82JBdALTGHb2d7kdh-78" value="" style="endArrow=none;html=1;rounded=0;" parent="1" edge="1">
          <mxGeometry width="50" height="50" relative="1" as="geometry">
            <mxPoint x="270" y="299" as="sourcePoint" />
            <mxPoint x="288" y="299" as="targetPoint" />
          </mxGeometry>
        </mxCell>
        <mxCell id="YWq82JBdALTGHb2d7kdh-79" value="" style="endArrow=none;html=1;rounded=0;" parent="1" edge="1">
          <mxGeometry width="50" height="50" relative="1" as="geometry">
            <mxPoint x="270" y="305" as="sourcePoint" />
            <mxPoint x="288" y="305" as="targetPoint" />
          </mxGeometry>
        </mxCell>
        <mxCell id="YWq82JBdALTGHb2d7kdh-80" value="" style="endArrow=none;html=1;rounded=0;" parent="1" edge="1">
          <mxGeometry width="50" height="50" relative="1" as="geometry">
            <mxPoint x="270" y="312" as="sourcePoint" />
            <mxPoint x="288" y="312" as="targetPoint" />
          </mxGeometry>
        </mxCell>
        <mxCell id="YWq82JBdALTGHb2d7kdh-81" value="" style="endArrow=none;html=1;rounded=0;" parent="1" edge="1">
          <mxGeometry width="50" height="50" relative="1" as="geometry">
            <mxPoint x="270" y="318" as="sourcePoint" />
            <mxPoint x="288" y="318" as="targetPoint" />
          </mxGeometry>
        </mxCell>
        <mxCell id="YWq82JBdALTGHb2d7kdh-82" value="" style="endArrow=none;html=1;rounded=0;" parent="1" edge="1">
          <mxGeometry width="50" height="50" relative="1" as="geometry">
            <mxPoint x="270" y="325" as="sourcePoint" />
            <mxPoint x="288" y="325" as="targetPoint" />
          </mxGeometry>
        </mxCell>
        <mxCell id="YWq82JBdALTGHb2d7kdh-83" value="" style="endArrow=none;html=1;rounded=0;" parent="1" edge="1">
          <mxGeometry width="50" height="50" relative="1" as="geometry">
            <mxPoint x="183" y="299.83" as="sourcePoint" />
            <mxPoint x="201" y="299.83" as="targetPoint" />
          </mxGeometry>
        </mxCell>
        <mxCell id="YWq82JBdALTGHb2d7kdh-84" value="" style="endArrow=none;html=1;rounded=0;" parent="1" edge="1">
          <mxGeometry width="50" height="50" relative="1" as="geometry">
            <mxPoint x="183" y="305.83" as="sourcePoint" />
            <mxPoint x="201" y="305.83" as="targetPoint" />
          </mxGeometry>
        </mxCell>
        <mxCell id="YWq82JBdALTGHb2d7kdh-85" value="" style="endArrow=none;html=1;rounded=0;" parent="1" edge="1">
          <mxGeometry width="50" height="50" relative="1" as="geometry">
            <mxPoint x="183" y="312.83" as="sourcePoint" />
            <mxPoint x="201" y="312.83" as="targetPoint" />
          </mxGeometry>
        </mxCell>
        <mxCell id="YWq82JBdALTGHb2d7kdh-86" value="" style="endArrow=none;html=1;rounded=0;" parent="1" edge="1">
          <mxGeometry width="50" height="50" relative="1" as="geometry">
            <mxPoint x="183" y="318.83" as="sourcePoint" />
            <mxPoint x="201" y="318.83" as="targetPoint" />
          </mxGeometry>
        </mxCell>
        <mxCell id="YWq82JBdALTGHb2d7kdh-87" value="" style="endArrow=none;html=1;rounded=0;" parent="1" edge="1">
          <mxGeometry width="50" height="50" relative="1" as="geometry">
            <mxPoint x="183" y="325.83" as="sourcePoint" />
            <mxPoint x="201" y="325.83" as="targetPoint" />
          </mxGeometry>
        </mxCell>
        <mxCell id="YWq82JBdALTGHb2d7kdh-88" value="" style="endArrow=none;html=1;rounded=0;" parent="1" edge="1">
          <mxGeometry width="50" height="50" relative="1" as="geometry">
            <mxPoint x="251.36" y="353" as="sourcePoint" />
            <mxPoint x="251.36" y="337" as="targetPoint" />
          </mxGeometry>
        </mxCell>
        <mxCell id="YWq82JBdALTGHb2d7kdh-89" value="" style="endArrow=none;html=1;rounded=0;" parent="1" edge="1">
          <mxGeometry width="50" height="50" relative="1" as="geometry">
            <mxPoint x="243.36" y="353" as="sourcePoint" />
            <mxPoint x="243.36" y="337" as="targetPoint" />
          </mxGeometry>
        </mxCell>
        <mxCell id="YWq82JBdALTGHb2d7kdh-90" value="" style="endArrow=none;html=1;rounded=0;" parent="1" edge="1">
          <mxGeometry width="50" height="50" relative="1" as="geometry">
            <mxPoint x="235.36" y="353" as="sourcePoint" />
            <mxPoint x="235.36" y="337" as="targetPoint" />
          </mxGeometry>
        </mxCell>
        <mxCell id="YWq82JBdALTGHb2d7kdh-91" value="" style="endArrow=none;html=1;rounded=0;" parent="1" edge="1">
          <mxGeometry width="50" height="50" relative="1" as="geometry">
            <mxPoint x="227.36" y="353" as="sourcePoint" />
            <mxPoint x="227.36" y="337" as="targetPoint" />
          </mxGeometry>
        </mxCell>
        <mxCell id="YWq82JBdALTGHb2d7kdh-92" value="" style="endArrow=none;html=1;rounded=0;" parent="1" edge="1">
          <mxGeometry width="50" height="50" relative="1" as="geometry">
            <mxPoint x="219.36" y="353" as="sourcePoint" />
            <mxPoint x="219.36" y="337" as="targetPoint" />
          </mxGeometry>
        </mxCell>
        <mxCell id="YWq82JBdALTGHb2d7kdh-93" value="" style="endArrow=none;html=1;rounded=0;" parent="1" edge="1">
          <mxGeometry width="50" height="50" relative="1" as="geometry">
            <mxPoint x="251.36" y="289" as="sourcePoint" />
            <mxPoint x="251.36" y="273" as="targetPoint" />
          </mxGeometry>
        </mxCell>
        <mxCell id="YWq82JBdALTGHb2d7kdh-94" value="" style="endArrow=none;html=1;rounded=0;" parent="1" edge="1">
          <mxGeometry width="50" height="50" relative="1" as="geometry">
            <mxPoint x="243.36" y="289" as="sourcePoint" />
            <mxPoint x="243.36" y="273" as="targetPoint" />
          </mxGeometry>
        </mxCell>
        <mxCell id="YWq82JBdALTGHb2d7kdh-95" value="" style="endArrow=none;html=1;rounded=0;" parent="1" edge="1">
          <mxGeometry width="50" height="50" relative="1" as="geometry">
            <mxPoint x="235.36" y="289" as="sourcePoint" />
            <mxPoint x="235.36" y="273" as="targetPoint" />
          </mxGeometry>
        </mxCell>
        <mxCell id="YWq82JBdALTGHb2d7kdh-96" value="" style="endArrow=none;html=1;rounded=0;" parent="1" edge="1">
          <mxGeometry width="50" height="50" relative="1" as="geometry">
            <mxPoint x="227.36" y="289" as="sourcePoint" />
            <mxPoint x="227.36" y="273" as="targetPoint" />
          </mxGeometry>
        </mxCell>
        <mxCell id="YWq82JBdALTGHb2d7kdh-97" value="" style="endArrow=none;html=1;rounded=0;" parent="1" edge="1">
          <mxGeometry width="50" height="50" relative="1" as="geometry">
            <mxPoint x="219.36" y="289" as="sourcePoint" />
            <mxPoint x="219.36" y="273" as="targetPoint" />
          </mxGeometry>
        </mxCell>
        <mxCell id="YWq82JBdALTGHb2d7kdh-98" value="" style="rounded=0;whiteSpace=wrap;html=1;fillColor=#fff2cc;strokeColor=#d6b656;" parent="1" vertex="1">
          <mxGeometry x="53" y="356" width="248" height="87" as="geometry" />
        </mxCell>
        <mxCell id="YWq82JBdALTGHb2d7kdh-99" value="&lt;b&gt;&lt;font style=&quot;font-size: 14px;&quot; face=&quot;Verdana&quot;&gt;CPU&lt;/font&gt;&lt;/b&gt;" style="rounded=0;whiteSpace=wrap;html=1;fillColor=#f5f5f5;strokeColor=#666666;fontColor=#333333;" parent="1" vertex="1">
          <mxGeometry x="83" y="376" width="69" height="48" as="geometry" />
        </mxCell>
        <mxCell id="YWq82JBdALTGHb2d7kdh-100" value="" style="endArrow=none;html=1;rounded=0;" parent="1" edge="1">
          <mxGeometry width="50" height="50" relative="1" as="geometry">
            <mxPoint x="152" y="386" as="sourcePoint" />
            <mxPoint x="170" y="386" as="targetPoint" />
          </mxGeometry>
        </mxCell>
        <mxCell id="YWq82JBdALTGHb2d7kdh-101" value="" style="endArrow=none;html=1;rounded=0;" parent="1" edge="1">
          <mxGeometry width="50" height="50" relative="1" as="geometry">
            <mxPoint x="152" y="392" as="sourcePoint" />
            <mxPoint x="170" y="392" as="targetPoint" />
          </mxGeometry>
        </mxCell>
        <mxCell id="YWq82JBdALTGHb2d7kdh-102" value="" style="endArrow=none;html=1;rounded=0;" parent="1" edge="1">
          <mxGeometry width="50" height="50" relative="1" as="geometry">
            <mxPoint x="152" y="399" as="sourcePoint" />
            <mxPoint x="170" y="399" as="targetPoint" />
          </mxGeometry>
        </mxCell>
        <mxCell id="YWq82JBdALTGHb2d7kdh-103" value="" style="endArrow=none;html=1;rounded=0;" parent="1" edge="1">
          <mxGeometry width="50" height="50" relative="1" as="geometry">
            <mxPoint x="152" y="405" as="sourcePoint" />
            <mxPoint x="170" y="405" as="targetPoint" />
          </mxGeometry>
        </mxCell>
        <mxCell id="YWq82JBdALTGHb2d7kdh-104" value="" style="endArrow=none;html=1;rounded=0;" parent="1" edge="1">
          <mxGeometry width="50" height="50" relative="1" as="geometry">
            <mxPoint x="152" y="412" as="sourcePoint" />
            <mxPoint x="170" y="412" as="targetPoint" />
          </mxGeometry>
        </mxCell>
        <mxCell id="YWq82JBdALTGHb2d7kdh-105" value="" style="endArrow=none;html=1;rounded=0;" parent="1" edge="1">
          <mxGeometry width="50" height="50" relative="1" as="geometry">
            <mxPoint x="65" y="386.83" as="sourcePoint" />
            <mxPoint x="83" y="386.83" as="targetPoint" />
          </mxGeometry>
        </mxCell>
        <mxCell id="YWq82JBdALTGHb2d7kdh-106" value="" style="endArrow=none;html=1;rounded=0;" parent="1" edge="1">
          <mxGeometry width="50" height="50" relative="1" as="geometry">
            <mxPoint x="65" y="392.83" as="sourcePoint" />
            <mxPoint x="83" y="392.83" as="targetPoint" />
          </mxGeometry>
        </mxCell>
        <mxCell id="YWq82JBdALTGHb2d7kdh-107" value="" style="endArrow=none;html=1;rounded=0;" parent="1" edge="1">
          <mxGeometry width="50" height="50" relative="1" as="geometry">
            <mxPoint x="65" y="399.83" as="sourcePoint" />
            <mxPoint x="83" y="399.83" as="targetPoint" />
          </mxGeometry>
        </mxCell>
        <mxCell id="YWq82JBdALTGHb2d7kdh-108" value="" style="endArrow=none;html=1;rounded=0;" parent="1" edge="1">
          <mxGeometry width="50" height="50" relative="1" as="geometry">
            <mxPoint x="65" y="405.83" as="sourcePoint" />
            <mxPoint x="83" y="405.83" as="targetPoint" />
          </mxGeometry>
        </mxCell>
        <mxCell id="YWq82JBdALTGHb2d7kdh-109" value="" style="endArrow=none;html=1;rounded=0;" parent="1" edge="1">
          <mxGeometry width="50" height="50" relative="1" as="geometry">
            <mxPoint x="65" y="412.83" as="sourcePoint" />
            <mxPoint x="83" y="412.83" as="targetPoint" />
          </mxGeometry>
        </mxCell>
        <mxCell id="YWq82JBdALTGHb2d7kdh-110" value="" style="endArrow=none;html=1;rounded=0;" parent="1" edge="1">
          <mxGeometry width="50" height="50" relative="1" as="geometry">
            <mxPoint x="133.36" y="440" as="sourcePoint" />
            <mxPoint x="133.36" y="424" as="targetPoint" />
          </mxGeometry>
        </mxCell>
        <mxCell id="YWq82JBdALTGHb2d7kdh-111" value="" style="endArrow=none;html=1;rounded=0;" parent="1" edge="1">
          <mxGeometry width="50" height="50" relative="1" as="geometry">
            <mxPoint x="125.36000000000001" y="440" as="sourcePoint" />
            <mxPoint x="125.36000000000001" y="424" as="targetPoint" />
          </mxGeometry>
        </mxCell>
        <mxCell id="YWq82JBdALTGHb2d7kdh-112" value="" style="endArrow=none;html=1;rounded=0;" parent="1" edge="1">
          <mxGeometry width="50" height="50" relative="1" as="geometry">
            <mxPoint x="117.36000000000001" y="440" as="sourcePoint" />
            <mxPoint x="117.36000000000001" y="424" as="targetPoint" />
          </mxGeometry>
        </mxCell>
        <mxCell id="YWq82JBdALTGHb2d7kdh-113" value="" style="endArrow=none;html=1;rounded=0;" parent="1" edge="1">
          <mxGeometry width="50" height="50" relative="1" as="geometry">
            <mxPoint x="109.36000000000001" y="440" as="sourcePoint" />
            <mxPoint x="109.36000000000001" y="424" as="targetPoint" />
          </mxGeometry>
        </mxCell>
        <mxCell id="YWq82JBdALTGHb2d7kdh-114" value="" style="endArrow=none;html=1;rounded=0;" parent="1" edge="1">
          <mxGeometry width="50" height="50" relative="1" as="geometry">
            <mxPoint x="101.36000000000001" y="440" as="sourcePoint" />
            <mxPoint x="101.36000000000001" y="424" as="targetPoint" />
          </mxGeometry>
        </mxCell>
        <mxCell id="YWq82JBdALTGHb2d7kdh-115" value="" style="endArrow=none;html=1;rounded=0;" parent="1" edge="1">
          <mxGeometry width="50" height="50" relative="1" as="geometry">
            <mxPoint x="133.36" y="376" as="sourcePoint" />
            <mxPoint x="133.36" y="360" as="targetPoint" />
          </mxGeometry>
        </mxCell>
        <mxCell id="YWq82JBdALTGHb2d7kdh-116" value="" style="endArrow=none;html=1;rounded=0;" parent="1" edge="1">
          <mxGeometry width="50" height="50" relative="1" as="geometry">
            <mxPoint x="125.36000000000001" y="376" as="sourcePoint" />
            <mxPoint x="125.36000000000001" y="360" as="targetPoint" />
          </mxGeometry>
        </mxCell>
        <mxCell id="YWq82JBdALTGHb2d7kdh-117" value="" style="endArrow=none;html=1;rounded=0;" parent="1" edge="1">
          <mxGeometry width="50" height="50" relative="1" as="geometry">
            <mxPoint x="117.36000000000001" y="376" as="sourcePoint" />
            <mxPoint x="117.36000000000001" y="360" as="targetPoint" />
          </mxGeometry>
        </mxCell>
        <mxCell id="YWq82JBdALTGHb2d7kdh-118" value="" style="endArrow=none;html=1;rounded=0;" parent="1" edge="1">
          <mxGeometry width="50" height="50" relative="1" as="geometry">
            <mxPoint x="109.36000000000001" y="376" as="sourcePoint" />
            <mxPoint x="109.36000000000001" y="360" as="targetPoint" />
          </mxGeometry>
        </mxCell>
        <mxCell id="YWq82JBdALTGHb2d7kdh-119" value="" style="endArrow=none;html=1;rounded=0;" parent="1" edge="1">
          <mxGeometry width="50" height="50" relative="1" as="geometry">
            <mxPoint x="101.36000000000001" y="376" as="sourcePoint" />
            <mxPoint x="101.36000000000001" y="360" as="targetPoint" />
          </mxGeometry>
        </mxCell>
        <mxCell id="YWq82JBdALTGHb2d7kdh-120" value="&lt;b&gt;&lt;font style=&quot;font-size: 14px;&quot; face=&quot;Verdana&quot;&gt;CPU&lt;/font&gt;&lt;/b&gt;" style="rounded=0;whiteSpace=wrap;html=1;fillColor=#f5f5f5;strokeColor=#666666;fontColor=#333333;" parent="1" vertex="1">
          <mxGeometry x="201" y="376" width="69" height="48" as="geometry" />
        </mxCell>
        <mxCell id="YWq82JBdALTGHb2d7kdh-121" value="" style="endArrow=none;html=1;rounded=0;" parent="1" edge="1">
          <mxGeometry width="50" height="50" relative="1" as="geometry">
            <mxPoint x="270" y="386" as="sourcePoint" />
            <mxPoint x="288" y="386" as="targetPoint" />
          </mxGeometry>
        </mxCell>
        <mxCell id="YWq82JBdALTGHb2d7kdh-122" value="" style="endArrow=none;html=1;rounded=0;" parent="1" edge="1">
          <mxGeometry width="50" height="50" relative="1" as="geometry">
            <mxPoint x="270" y="392" as="sourcePoint" />
            <mxPoint x="288" y="392" as="targetPoint" />
          </mxGeometry>
        </mxCell>
        <mxCell id="YWq82JBdALTGHb2d7kdh-123" value="" style="endArrow=none;html=1;rounded=0;" parent="1" edge="1">
          <mxGeometry width="50" height="50" relative="1" as="geometry">
            <mxPoint x="270" y="399" as="sourcePoint" />
            <mxPoint x="288" y="399" as="targetPoint" />
          </mxGeometry>
        </mxCell>
        <mxCell id="YWq82JBdALTGHb2d7kdh-124" value="" style="endArrow=none;html=1;rounded=0;" parent="1" edge="1">
          <mxGeometry width="50" height="50" relative="1" as="geometry">
            <mxPoint x="270" y="405" as="sourcePoint" />
            <mxPoint x="288" y="405" as="targetPoint" />
          </mxGeometry>
        </mxCell>
        <mxCell id="YWq82JBdALTGHb2d7kdh-125" value="" style="endArrow=none;html=1;rounded=0;" parent="1" edge="1">
          <mxGeometry width="50" height="50" relative="1" as="geometry">
            <mxPoint x="270" y="412" as="sourcePoint" />
            <mxPoint x="288" y="412" as="targetPoint" />
          </mxGeometry>
        </mxCell>
        <mxCell id="YWq82JBdALTGHb2d7kdh-126" value="" style="endArrow=none;html=1;rounded=0;" parent="1" edge="1">
          <mxGeometry width="50" height="50" relative="1" as="geometry">
            <mxPoint x="183" y="386.83" as="sourcePoint" />
            <mxPoint x="201" y="386.83" as="targetPoint" />
          </mxGeometry>
        </mxCell>
        <mxCell id="YWq82JBdALTGHb2d7kdh-127" value="" style="endArrow=none;html=1;rounded=0;" parent="1" edge="1">
          <mxGeometry width="50" height="50" relative="1" as="geometry">
            <mxPoint x="183" y="392.83" as="sourcePoint" />
            <mxPoint x="201" y="392.83" as="targetPoint" />
          </mxGeometry>
        </mxCell>
        <mxCell id="YWq82JBdALTGHb2d7kdh-128" value="" style="endArrow=none;html=1;rounded=0;" parent="1" edge="1">
          <mxGeometry width="50" height="50" relative="1" as="geometry">
            <mxPoint x="183" y="399.83" as="sourcePoint" />
            <mxPoint x="201" y="399.83" as="targetPoint" />
          </mxGeometry>
        </mxCell>
        <mxCell id="YWq82JBdALTGHb2d7kdh-129" value="" style="endArrow=none;html=1;rounded=0;" parent="1" edge="1">
          <mxGeometry width="50" height="50" relative="1" as="geometry">
            <mxPoint x="183" y="405.83" as="sourcePoint" />
            <mxPoint x="201" y="405.83" as="targetPoint" />
          </mxGeometry>
        </mxCell>
        <mxCell id="YWq82JBdALTGHb2d7kdh-130" value="" style="endArrow=none;html=1;rounded=0;" parent="1" edge="1">
          <mxGeometry width="50" height="50" relative="1" as="geometry">
            <mxPoint x="183" y="412.83" as="sourcePoint" />
            <mxPoint x="201" y="412.83" as="targetPoint" />
          </mxGeometry>
        </mxCell>
        <mxCell id="YWq82JBdALTGHb2d7kdh-131" value="" style="endArrow=none;html=1;rounded=0;" parent="1" edge="1">
          <mxGeometry width="50" height="50" relative="1" as="geometry">
            <mxPoint x="251.36" y="440" as="sourcePoint" />
            <mxPoint x="251.36" y="424" as="targetPoint" />
          </mxGeometry>
        </mxCell>
        <mxCell id="YWq82JBdALTGHb2d7kdh-132" value="" style="endArrow=none;html=1;rounded=0;" parent="1" edge="1">
          <mxGeometry width="50" height="50" relative="1" as="geometry">
            <mxPoint x="243.36" y="440" as="sourcePoint" />
            <mxPoint x="243.36" y="424" as="targetPoint" />
          </mxGeometry>
        </mxCell>
        <mxCell id="YWq82JBdALTGHb2d7kdh-133" value="" style="endArrow=none;html=1;rounded=0;" parent="1" edge="1">
          <mxGeometry width="50" height="50" relative="1" as="geometry">
            <mxPoint x="235.36" y="440" as="sourcePoint" />
            <mxPoint x="235.36" y="424" as="targetPoint" />
          </mxGeometry>
        </mxCell>
        <mxCell id="YWq82JBdALTGHb2d7kdh-134" value="" style="endArrow=none;html=1;rounded=0;" parent="1" edge="1">
          <mxGeometry width="50" height="50" relative="1" as="geometry">
            <mxPoint x="227.36" y="440" as="sourcePoint" />
            <mxPoint x="227.36" y="424" as="targetPoint" />
          </mxGeometry>
        </mxCell>
        <mxCell id="YWq82JBdALTGHb2d7kdh-135" value="" style="endArrow=none;html=1;rounded=0;" parent="1" edge="1">
          <mxGeometry width="50" height="50" relative="1" as="geometry">
            <mxPoint x="219.36" y="440" as="sourcePoint" />
            <mxPoint x="219.36" y="424" as="targetPoint" />
          </mxGeometry>
        </mxCell>
        <mxCell id="YWq82JBdALTGHb2d7kdh-136" value="" style="endArrow=none;html=1;rounded=0;" parent="1" edge="1">
          <mxGeometry width="50" height="50" relative="1" as="geometry">
            <mxPoint x="251.36" y="376" as="sourcePoint" />
            <mxPoint x="251.36" y="360" as="targetPoint" />
          </mxGeometry>
        </mxCell>
        <mxCell id="YWq82JBdALTGHb2d7kdh-137" value="" style="endArrow=none;html=1;rounded=0;" parent="1" edge="1">
          <mxGeometry width="50" height="50" relative="1" as="geometry">
            <mxPoint x="243.36" y="376" as="sourcePoint" />
            <mxPoint x="243.36" y="360" as="targetPoint" />
          </mxGeometry>
        </mxCell>
        <mxCell id="YWq82JBdALTGHb2d7kdh-138" value="" style="endArrow=none;html=1;rounded=0;" parent="1" edge="1">
          <mxGeometry width="50" height="50" relative="1" as="geometry">
            <mxPoint x="235.36" y="376" as="sourcePoint" />
            <mxPoint x="235.36" y="360" as="targetPoint" />
          </mxGeometry>
        </mxCell>
        <mxCell id="YWq82JBdALTGHb2d7kdh-139" value="" style="endArrow=none;html=1;rounded=0;" parent="1" edge="1">
          <mxGeometry width="50" height="50" relative="1" as="geometry">
            <mxPoint x="227.36" y="376" as="sourcePoint" />
            <mxPoint x="227.36" y="360" as="targetPoint" />
          </mxGeometry>
        </mxCell>
        <mxCell id="YWq82JBdALTGHb2d7kdh-140" value="" style="endArrow=none;html=1;rounded=0;" parent="1" edge="1">
          <mxGeometry width="50" height="50" relative="1" as="geometry">
            <mxPoint x="219.36" y="376" as="sourcePoint" />
            <mxPoint x="219.36" y="360" as="targetPoint" />
          </mxGeometry>
        </mxCell>
        <mxCell id="YWq82JBdALTGHb2d7kdh-142" value="&lt;font face=&quot;Courier New&quot; style=&quot;font-size: 18px;&quot;&gt;{&quot;CPU&quot;:6}&lt;/font&gt;" style="text;html=1;align=center;verticalAlign=middle;whiteSpace=wrap;rounded=0;fontStyle=1" parent="1" vertex="1">
          <mxGeometry x="193" y="112" width="118" height="30" as="geometry" />
        </mxCell>
        <mxCell id="YWq82JBdALTGHb2d7kdh-143" value="" style="rounded=0;whiteSpace=wrap;html=1;" parent="1" vertex="1">
          <mxGeometry x="425" y="110" width="281" height="350" as="geometry" />
        </mxCell>
        <mxCell id="YWq82JBdALTGHb2d7kdh-144" value="" style="rounded=0;whiteSpace=wrap;html=1;" parent="1" vertex="1">
          <mxGeometry x="444" y="178" width="248" height="91" as="geometry" />
        </mxCell>
        <mxCell id="YWq82JBdALTGHb2d7kdh-145" value="&lt;b&gt;&lt;font style=&quot;font-size: 14px;&quot; face=&quot;Verdana&quot;&gt;CPU&lt;/font&gt;&lt;/b&gt;" style="rounded=0;whiteSpace=wrap;html=1;fillColor=#f5f5f5;strokeColor=#666666;fontColor=#333333;" parent="1" vertex="1">
          <mxGeometry x="474" y="202" width="69" height="48" as="geometry" />
        </mxCell>
        <mxCell id="YWq82JBdALTGHb2d7kdh-146" value="" style="endArrow=none;html=1;rounded=0;" parent="1" edge="1">
          <mxGeometry width="50" height="50" relative="1" as="geometry">
            <mxPoint x="543" y="212" as="sourcePoint" />
            <mxPoint x="561" y="212" as="targetPoint" />
          </mxGeometry>
        </mxCell>
        <mxCell id="YWq82JBdALTGHb2d7kdh-147" value="" style="endArrow=none;html=1;rounded=0;" parent="1" edge="1">
          <mxGeometry width="50" height="50" relative="1" as="geometry">
            <mxPoint x="543" y="218" as="sourcePoint" />
            <mxPoint x="561" y="218" as="targetPoint" />
          </mxGeometry>
        </mxCell>
        <mxCell id="YWq82JBdALTGHb2d7kdh-148" value="" style="endArrow=none;html=1;rounded=0;" parent="1" edge="1">
          <mxGeometry width="50" height="50" relative="1" as="geometry">
            <mxPoint x="543" y="225" as="sourcePoint" />
            <mxPoint x="561" y="225" as="targetPoint" />
          </mxGeometry>
        </mxCell>
        <mxCell id="YWq82JBdALTGHb2d7kdh-149" value="" style="endArrow=none;html=1;rounded=0;" parent="1" edge="1">
          <mxGeometry width="50" height="50" relative="1" as="geometry">
            <mxPoint x="543" y="231" as="sourcePoint" />
            <mxPoint x="561" y="231" as="targetPoint" />
          </mxGeometry>
        </mxCell>
        <mxCell id="YWq82JBdALTGHb2d7kdh-150" value="" style="endArrow=none;html=1;rounded=0;" parent="1" edge="1">
          <mxGeometry width="50" height="50" relative="1" as="geometry">
            <mxPoint x="543" y="238" as="sourcePoint" />
            <mxPoint x="561" y="238" as="targetPoint" />
          </mxGeometry>
        </mxCell>
        <mxCell id="YWq82JBdALTGHb2d7kdh-151" value="" style="endArrow=none;html=1;rounded=0;" parent="1" edge="1">
          <mxGeometry width="50" height="50" relative="1" as="geometry">
            <mxPoint x="456" y="212.82999999999998" as="sourcePoint" />
            <mxPoint x="474" y="212.82999999999998" as="targetPoint" />
          </mxGeometry>
        </mxCell>
        <mxCell id="YWq82JBdALTGHb2d7kdh-152" value="" style="endArrow=none;html=1;rounded=0;" parent="1" edge="1">
          <mxGeometry width="50" height="50" relative="1" as="geometry">
            <mxPoint x="456" y="218.82999999999998" as="sourcePoint" />
            <mxPoint x="474" y="218.82999999999998" as="targetPoint" />
          </mxGeometry>
        </mxCell>
        <mxCell id="YWq82JBdALTGHb2d7kdh-153" value="" style="endArrow=none;html=1;rounded=0;" parent="1" edge="1">
          <mxGeometry width="50" height="50" relative="1" as="geometry">
            <mxPoint x="456" y="225.82999999999998" as="sourcePoint" />
            <mxPoint x="474" y="225.82999999999998" as="targetPoint" />
          </mxGeometry>
        </mxCell>
        <mxCell id="YWq82JBdALTGHb2d7kdh-154" value="" style="endArrow=none;html=1;rounded=0;" parent="1" edge="1">
          <mxGeometry width="50" height="50" relative="1" as="geometry">
            <mxPoint x="456" y="231.82999999999998" as="sourcePoint" />
            <mxPoint x="474" y="231.82999999999998" as="targetPoint" />
          </mxGeometry>
        </mxCell>
        <mxCell id="YWq82JBdALTGHb2d7kdh-155" value="" style="endArrow=none;html=1;rounded=0;" parent="1" edge="1">
          <mxGeometry width="50" height="50" relative="1" as="geometry">
            <mxPoint x="456" y="238.82999999999998" as="sourcePoint" />
            <mxPoint x="474" y="238.82999999999998" as="targetPoint" />
          </mxGeometry>
        </mxCell>
        <mxCell id="YWq82JBdALTGHb2d7kdh-156" value="" style="endArrow=none;html=1;rounded=0;" parent="1" edge="1">
          <mxGeometry width="50" height="50" relative="1" as="geometry">
            <mxPoint x="524.36" y="266" as="sourcePoint" />
            <mxPoint x="524.36" y="250" as="targetPoint" />
          </mxGeometry>
        </mxCell>
        <mxCell id="YWq82JBdALTGHb2d7kdh-157" value="" style="endArrow=none;html=1;rounded=0;" parent="1" edge="1">
          <mxGeometry width="50" height="50" relative="1" as="geometry">
            <mxPoint x="516.36" y="266" as="sourcePoint" />
            <mxPoint x="516.36" y="250" as="targetPoint" />
          </mxGeometry>
        </mxCell>
        <mxCell id="YWq82JBdALTGHb2d7kdh-158" value="" style="endArrow=none;html=1;rounded=0;" parent="1" edge="1">
          <mxGeometry width="50" height="50" relative="1" as="geometry">
            <mxPoint x="508.36" y="266" as="sourcePoint" />
            <mxPoint x="508.36" y="250" as="targetPoint" />
          </mxGeometry>
        </mxCell>
        <mxCell id="YWq82JBdALTGHb2d7kdh-159" value="" style="endArrow=none;html=1;rounded=0;" parent="1" edge="1">
          <mxGeometry width="50" height="50" relative="1" as="geometry">
            <mxPoint x="500.36" y="266" as="sourcePoint" />
            <mxPoint x="500.36" y="250" as="targetPoint" />
          </mxGeometry>
        </mxCell>
        <mxCell id="YWq82JBdALTGHb2d7kdh-160" value="" style="endArrow=none;html=1;rounded=0;" parent="1" edge="1">
          <mxGeometry width="50" height="50" relative="1" as="geometry">
            <mxPoint x="492.36" y="266" as="sourcePoint" />
            <mxPoint x="492.36" y="250" as="targetPoint" />
          </mxGeometry>
        </mxCell>
        <mxCell id="YWq82JBdALTGHb2d7kdh-161" value="" style="endArrow=none;html=1;rounded=0;" parent="1" edge="1">
          <mxGeometry width="50" height="50" relative="1" as="geometry">
            <mxPoint x="524.36" y="202" as="sourcePoint" />
            <mxPoint x="524.36" y="186" as="targetPoint" />
          </mxGeometry>
        </mxCell>
        <mxCell id="YWq82JBdALTGHb2d7kdh-162" value="" style="endArrow=none;html=1;rounded=0;" parent="1" edge="1">
          <mxGeometry width="50" height="50" relative="1" as="geometry">
            <mxPoint x="516.36" y="202" as="sourcePoint" />
            <mxPoint x="516.36" y="186" as="targetPoint" />
          </mxGeometry>
        </mxCell>
        <mxCell id="YWq82JBdALTGHb2d7kdh-163" value="" style="endArrow=none;html=1;rounded=0;" parent="1" edge="1">
          <mxGeometry width="50" height="50" relative="1" as="geometry">
            <mxPoint x="508.36" y="202" as="sourcePoint" />
            <mxPoint x="508.36" y="186" as="targetPoint" />
          </mxGeometry>
        </mxCell>
        <mxCell id="YWq82JBdALTGHb2d7kdh-164" value="" style="endArrow=none;html=1;rounded=0;" parent="1" edge="1">
          <mxGeometry width="50" height="50" relative="1" as="geometry">
            <mxPoint x="500.36" y="202" as="sourcePoint" />
            <mxPoint x="500.36" y="186" as="targetPoint" />
          </mxGeometry>
        </mxCell>
        <mxCell id="YWq82JBdALTGHb2d7kdh-165" value="" style="endArrow=none;html=1;rounded=0;" parent="1" edge="1">
          <mxGeometry width="50" height="50" relative="1" as="geometry">
            <mxPoint x="492.36" y="202" as="sourcePoint" />
            <mxPoint x="492.36" y="186" as="targetPoint" />
          </mxGeometry>
        </mxCell>
        <mxCell id="YWq82JBdALTGHb2d7kdh-166" value="&lt;b&gt;&lt;font style=&quot;font-size: 14px;&quot; face=&quot;Verdana&quot;&gt;CPU&lt;/font&gt;&lt;/b&gt;" style="rounded=0;whiteSpace=wrap;html=1;fillColor=#f5f5f5;strokeColor=#666666;fontColor=#333333;" parent="1" vertex="1">
          <mxGeometry x="592" y="202" width="69" height="48" as="geometry" />
        </mxCell>
        <mxCell id="YWq82JBdALTGHb2d7kdh-167" value="" style="endArrow=none;html=1;rounded=0;" parent="1" edge="1">
          <mxGeometry width="50" height="50" relative="1" as="geometry">
            <mxPoint x="661" y="212" as="sourcePoint" />
            <mxPoint x="679" y="212" as="targetPoint" />
          </mxGeometry>
        </mxCell>
        <mxCell id="YWq82JBdALTGHb2d7kdh-168" value="" style="endArrow=none;html=1;rounded=0;" parent="1" edge="1">
          <mxGeometry width="50" height="50" relative="1" as="geometry">
            <mxPoint x="661" y="218" as="sourcePoint" />
            <mxPoint x="679" y="218" as="targetPoint" />
          </mxGeometry>
        </mxCell>
        <mxCell id="YWq82JBdALTGHb2d7kdh-169" value="" style="endArrow=none;html=1;rounded=0;" parent="1" edge="1">
          <mxGeometry width="50" height="50" relative="1" as="geometry">
            <mxPoint x="661" y="225" as="sourcePoint" />
            <mxPoint x="679" y="225" as="targetPoint" />
          </mxGeometry>
        </mxCell>
        <mxCell id="YWq82JBdALTGHb2d7kdh-170" value="" style="endArrow=none;html=1;rounded=0;" parent="1" edge="1">
          <mxGeometry width="50" height="50" relative="1" as="geometry">
            <mxPoint x="661" y="231" as="sourcePoint" />
            <mxPoint x="679" y="231" as="targetPoint" />
          </mxGeometry>
        </mxCell>
        <mxCell id="YWq82JBdALTGHb2d7kdh-171" value="" style="endArrow=none;html=1;rounded=0;" parent="1" edge="1">
          <mxGeometry width="50" height="50" relative="1" as="geometry">
            <mxPoint x="661" y="238" as="sourcePoint" />
            <mxPoint x="679" y="238" as="targetPoint" />
          </mxGeometry>
        </mxCell>
        <mxCell id="YWq82JBdALTGHb2d7kdh-172" value="" style="endArrow=none;html=1;rounded=0;" parent="1" edge="1">
          <mxGeometry width="50" height="50" relative="1" as="geometry">
            <mxPoint x="574" y="212.82999999999998" as="sourcePoint" />
            <mxPoint x="592" y="212.82999999999998" as="targetPoint" />
          </mxGeometry>
        </mxCell>
        <mxCell id="YWq82JBdALTGHb2d7kdh-173" value="" style="endArrow=none;html=1;rounded=0;" parent="1" edge="1">
          <mxGeometry width="50" height="50" relative="1" as="geometry">
            <mxPoint x="574" y="218.82999999999998" as="sourcePoint" />
            <mxPoint x="592" y="218.82999999999998" as="targetPoint" />
          </mxGeometry>
        </mxCell>
        <mxCell id="YWq82JBdALTGHb2d7kdh-174" value="" style="endArrow=none;html=1;rounded=0;" parent="1" edge="1">
          <mxGeometry width="50" height="50" relative="1" as="geometry">
            <mxPoint x="574" y="225.82999999999998" as="sourcePoint" />
            <mxPoint x="592" y="225.82999999999998" as="targetPoint" />
          </mxGeometry>
        </mxCell>
        <mxCell id="YWq82JBdALTGHb2d7kdh-175" value="" style="endArrow=none;html=1;rounded=0;" parent="1" edge="1">
          <mxGeometry width="50" height="50" relative="1" as="geometry">
            <mxPoint x="574" y="231.82999999999998" as="sourcePoint" />
            <mxPoint x="592" y="231.82999999999998" as="targetPoint" />
          </mxGeometry>
        </mxCell>
        <mxCell id="YWq82JBdALTGHb2d7kdh-176" value="" style="endArrow=none;html=1;rounded=0;" parent="1" edge="1">
          <mxGeometry width="50" height="50" relative="1" as="geometry">
            <mxPoint x="574" y="238.82999999999998" as="sourcePoint" />
            <mxPoint x="592" y="238.82999999999998" as="targetPoint" />
          </mxGeometry>
        </mxCell>
        <mxCell id="YWq82JBdALTGHb2d7kdh-177" value="" style="endArrow=none;html=1;rounded=0;" parent="1" edge="1">
          <mxGeometry width="50" height="50" relative="1" as="geometry">
            <mxPoint x="642.36" y="266" as="sourcePoint" />
            <mxPoint x="642.36" y="250" as="targetPoint" />
          </mxGeometry>
        </mxCell>
        <mxCell id="YWq82JBdALTGHb2d7kdh-178" value="" style="endArrow=none;html=1;rounded=0;" parent="1" edge="1">
          <mxGeometry width="50" height="50" relative="1" as="geometry">
            <mxPoint x="634.36" y="266" as="sourcePoint" />
            <mxPoint x="634.36" y="250" as="targetPoint" />
          </mxGeometry>
        </mxCell>
        <mxCell id="YWq82JBdALTGHb2d7kdh-179" value="" style="endArrow=none;html=1;rounded=0;" parent="1" edge="1">
          <mxGeometry width="50" height="50" relative="1" as="geometry">
            <mxPoint x="626.36" y="266" as="sourcePoint" />
            <mxPoint x="626.36" y="250" as="targetPoint" />
          </mxGeometry>
        </mxCell>
        <mxCell id="YWq82JBdALTGHb2d7kdh-180" value="" style="endArrow=none;html=1;rounded=0;" parent="1" edge="1">
          <mxGeometry width="50" height="50" relative="1" as="geometry">
            <mxPoint x="618.36" y="266" as="sourcePoint" />
            <mxPoint x="618.36" y="250" as="targetPoint" />
          </mxGeometry>
        </mxCell>
        <mxCell id="YWq82JBdALTGHb2d7kdh-181" value="" style="endArrow=none;html=1;rounded=0;" parent="1" edge="1">
          <mxGeometry width="50" height="50" relative="1" as="geometry">
            <mxPoint x="610.36" y="266" as="sourcePoint" />
            <mxPoint x="610.36" y="250" as="targetPoint" />
          </mxGeometry>
        </mxCell>
        <mxCell id="YWq82JBdALTGHb2d7kdh-182" value="" style="endArrow=none;html=1;rounded=0;" parent="1" edge="1">
          <mxGeometry width="50" height="50" relative="1" as="geometry">
            <mxPoint x="642.36" y="202" as="sourcePoint" />
            <mxPoint x="642.36" y="186" as="targetPoint" />
          </mxGeometry>
        </mxCell>
        <mxCell id="YWq82JBdALTGHb2d7kdh-183" value="" style="endArrow=none;html=1;rounded=0;" parent="1" edge="1">
          <mxGeometry width="50" height="50" relative="1" as="geometry">
            <mxPoint x="634.36" y="202" as="sourcePoint" />
            <mxPoint x="634.36" y="186" as="targetPoint" />
          </mxGeometry>
        </mxCell>
        <mxCell id="YWq82JBdALTGHb2d7kdh-184" value="" style="endArrow=none;html=1;rounded=0;" parent="1" edge="1">
          <mxGeometry width="50" height="50" relative="1" as="geometry">
            <mxPoint x="626.36" y="202" as="sourcePoint" />
            <mxPoint x="626.36" y="186" as="targetPoint" />
          </mxGeometry>
        </mxCell>
        <mxCell id="YWq82JBdALTGHb2d7kdh-185" value="" style="endArrow=none;html=1;rounded=0;" parent="1" edge="1">
          <mxGeometry width="50" height="50" relative="1" as="geometry">
            <mxPoint x="618.36" y="202" as="sourcePoint" />
            <mxPoint x="618.36" y="186" as="targetPoint" />
          </mxGeometry>
        </mxCell>
        <mxCell id="YWq82JBdALTGHb2d7kdh-186" value="" style="endArrow=none;html=1;rounded=0;" parent="1" edge="1">
          <mxGeometry width="50" height="50" relative="1" as="geometry">
            <mxPoint x="610.36" y="202" as="sourcePoint" />
            <mxPoint x="610.36" y="186" as="targetPoint" />
          </mxGeometry>
        </mxCell>
        <mxCell id="YWq82JBdALTGHb2d7kdh-187" value="" style="rounded=0;whiteSpace=wrap;html=1;" parent="1" vertex="1">
          <mxGeometry x="444" y="269" width="248" height="87" as="geometry" />
        </mxCell>
        <mxCell id="YWq82JBdALTGHb2d7kdh-188" value="&lt;b&gt;&lt;font style=&quot;font-size: 14px;&quot; face=&quot;Verdana&quot;&gt;CPU&lt;/font&gt;&lt;/b&gt;" style="rounded=0;whiteSpace=wrap;html=1;fillColor=#f5f5f5;strokeColor=#666666;fontColor=#333333;" parent="1" vertex="1">
          <mxGeometry x="474" y="289" width="69" height="48" as="geometry" />
        </mxCell>
        <mxCell id="YWq82JBdALTGHb2d7kdh-189" value="" style="endArrow=none;html=1;rounded=0;" parent="1" edge="1">
          <mxGeometry width="50" height="50" relative="1" as="geometry">
            <mxPoint x="543" y="299" as="sourcePoint" />
            <mxPoint x="561" y="299" as="targetPoint" />
          </mxGeometry>
        </mxCell>
        <mxCell id="YWq82JBdALTGHb2d7kdh-190" value="" style="endArrow=none;html=1;rounded=0;" parent="1" edge="1">
          <mxGeometry width="50" height="50" relative="1" as="geometry">
            <mxPoint x="543" y="305" as="sourcePoint" />
            <mxPoint x="561" y="305" as="targetPoint" />
          </mxGeometry>
        </mxCell>
        <mxCell id="YWq82JBdALTGHb2d7kdh-191" value="" style="endArrow=none;html=1;rounded=0;" parent="1" edge="1">
          <mxGeometry width="50" height="50" relative="1" as="geometry">
            <mxPoint x="543" y="312" as="sourcePoint" />
            <mxPoint x="561" y="312" as="targetPoint" />
          </mxGeometry>
        </mxCell>
        <mxCell id="YWq82JBdALTGHb2d7kdh-192" value="" style="endArrow=none;html=1;rounded=0;" parent="1" edge="1">
          <mxGeometry width="50" height="50" relative="1" as="geometry">
            <mxPoint x="543" y="318" as="sourcePoint" />
            <mxPoint x="561" y="318" as="targetPoint" />
          </mxGeometry>
        </mxCell>
        <mxCell id="YWq82JBdALTGHb2d7kdh-193" value="" style="endArrow=none;html=1;rounded=0;" parent="1" edge="1">
          <mxGeometry width="50" height="50" relative="1" as="geometry">
            <mxPoint x="543" y="325" as="sourcePoint" />
            <mxPoint x="561" y="325" as="targetPoint" />
          </mxGeometry>
        </mxCell>
        <mxCell id="YWq82JBdALTGHb2d7kdh-194" value="" style="endArrow=none;html=1;rounded=0;" parent="1" edge="1">
          <mxGeometry width="50" height="50" relative="1" as="geometry">
            <mxPoint x="456" y="299.83" as="sourcePoint" />
            <mxPoint x="474" y="299.83" as="targetPoint" />
          </mxGeometry>
        </mxCell>
        <mxCell id="YWq82JBdALTGHb2d7kdh-195" value="" style="endArrow=none;html=1;rounded=0;" parent="1" edge="1">
          <mxGeometry width="50" height="50" relative="1" as="geometry">
            <mxPoint x="456" y="305.83" as="sourcePoint" />
            <mxPoint x="474" y="305.83" as="targetPoint" />
          </mxGeometry>
        </mxCell>
        <mxCell id="YWq82JBdALTGHb2d7kdh-196" value="" style="endArrow=none;html=1;rounded=0;" parent="1" edge="1">
          <mxGeometry width="50" height="50" relative="1" as="geometry">
            <mxPoint x="456" y="312.83" as="sourcePoint" />
            <mxPoint x="474" y="312.83" as="targetPoint" />
          </mxGeometry>
        </mxCell>
        <mxCell id="YWq82JBdALTGHb2d7kdh-197" value="" style="endArrow=none;html=1;rounded=0;" parent="1" edge="1">
          <mxGeometry width="50" height="50" relative="1" as="geometry">
            <mxPoint x="456" y="318.83" as="sourcePoint" />
            <mxPoint x="474" y="318.83" as="targetPoint" />
          </mxGeometry>
        </mxCell>
        <mxCell id="YWq82JBdALTGHb2d7kdh-198" value="" style="endArrow=none;html=1;rounded=0;" parent="1" edge="1">
          <mxGeometry width="50" height="50" relative="1" as="geometry">
            <mxPoint x="456" y="325.83" as="sourcePoint" />
            <mxPoint x="474" y="325.83" as="targetPoint" />
          </mxGeometry>
        </mxCell>
        <mxCell id="YWq82JBdALTGHb2d7kdh-199" value="" style="endArrow=none;html=1;rounded=0;" parent="1" edge="1">
          <mxGeometry width="50" height="50" relative="1" as="geometry">
            <mxPoint x="524.36" y="353" as="sourcePoint" />
            <mxPoint x="524.36" y="337" as="targetPoint" />
          </mxGeometry>
        </mxCell>
        <mxCell id="YWq82JBdALTGHb2d7kdh-200" value="" style="endArrow=none;html=1;rounded=0;" parent="1" edge="1">
          <mxGeometry width="50" height="50" relative="1" as="geometry">
            <mxPoint x="516.36" y="353" as="sourcePoint" />
            <mxPoint x="516.36" y="337" as="targetPoint" />
          </mxGeometry>
        </mxCell>
        <mxCell id="YWq82JBdALTGHb2d7kdh-201" value="" style="endArrow=none;html=1;rounded=0;" parent="1" edge="1">
          <mxGeometry width="50" height="50" relative="1" as="geometry">
            <mxPoint x="508.36" y="353" as="sourcePoint" />
            <mxPoint x="508.36" y="337" as="targetPoint" />
          </mxGeometry>
        </mxCell>
        <mxCell id="YWq82JBdALTGHb2d7kdh-202" value="" style="endArrow=none;html=1;rounded=0;" parent="1" edge="1">
          <mxGeometry width="50" height="50" relative="1" as="geometry">
            <mxPoint x="500.36" y="353" as="sourcePoint" />
            <mxPoint x="500.36" y="337" as="targetPoint" />
          </mxGeometry>
        </mxCell>
        <mxCell id="YWq82JBdALTGHb2d7kdh-203" value="" style="endArrow=none;html=1;rounded=0;" parent="1" edge="1">
          <mxGeometry width="50" height="50" relative="1" as="geometry">
            <mxPoint x="492.36" y="353" as="sourcePoint" />
            <mxPoint x="492.36" y="337" as="targetPoint" />
          </mxGeometry>
        </mxCell>
        <mxCell id="YWq82JBdALTGHb2d7kdh-204" value="" style="endArrow=none;html=1;rounded=0;" parent="1" edge="1">
          <mxGeometry width="50" height="50" relative="1" as="geometry">
            <mxPoint x="524.36" y="289" as="sourcePoint" />
            <mxPoint x="524.36" y="273" as="targetPoint" />
          </mxGeometry>
        </mxCell>
        <mxCell id="YWq82JBdALTGHb2d7kdh-205" value="" style="endArrow=none;html=1;rounded=0;" parent="1" edge="1">
          <mxGeometry width="50" height="50" relative="1" as="geometry">
            <mxPoint x="516.36" y="289" as="sourcePoint" />
            <mxPoint x="516.36" y="273" as="targetPoint" />
          </mxGeometry>
        </mxCell>
        <mxCell id="YWq82JBdALTGHb2d7kdh-206" value="" style="endArrow=none;html=1;rounded=0;" parent="1" edge="1">
          <mxGeometry width="50" height="50" relative="1" as="geometry">
            <mxPoint x="508.36" y="289" as="sourcePoint" />
            <mxPoint x="508.36" y="273" as="targetPoint" />
          </mxGeometry>
        </mxCell>
        <mxCell id="YWq82JBdALTGHb2d7kdh-207" value="" style="endArrow=none;html=1;rounded=0;" parent="1" edge="1">
          <mxGeometry width="50" height="50" relative="1" as="geometry">
            <mxPoint x="500.36" y="289" as="sourcePoint" />
            <mxPoint x="500.36" y="273" as="targetPoint" />
          </mxGeometry>
        </mxCell>
        <mxCell id="YWq82JBdALTGHb2d7kdh-208" value="" style="endArrow=none;html=1;rounded=0;" parent="1" edge="1">
          <mxGeometry width="50" height="50" relative="1" as="geometry">
            <mxPoint x="492.36" y="289" as="sourcePoint" />
            <mxPoint x="492.36" y="273" as="targetPoint" />
          </mxGeometry>
        </mxCell>
        <mxCell id="YWq82JBdALTGHb2d7kdh-209" value="&lt;b&gt;&lt;font style=&quot;font-size: 14px;&quot; face=&quot;Verdana&quot;&gt;CPU&lt;/font&gt;&lt;/b&gt;" style="rounded=0;whiteSpace=wrap;html=1;fillColor=#f5f5f5;strokeColor=#666666;fontColor=#333333;" parent="1" vertex="1">
          <mxGeometry x="592" y="289" width="69" height="48" as="geometry" />
        </mxCell>
        <mxCell id="YWq82JBdALTGHb2d7kdh-210" value="" style="endArrow=none;html=1;rounded=0;" parent="1" edge="1">
          <mxGeometry width="50" height="50" relative="1" as="geometry">
            <mxPoint x="661" y="299" as="sourcePoint" />
            <mxPoint x="679" y="299" as="targetPoint" />
          </mxGeometry>
        </mxCell>
        <mxCell id="YWq82JBdALTGHb2d7kdh-211" value="" style="endArrow=none;html=1;rounded=0;" parent="1" edge="1">
          <mxGeometry width="50" height="50" relative="1" as="geometry">
            <mxPoint x="661" y="305" as="sourcePoint" />
            <mxPoint x="679" y="305" as="targetPoint" />
          </mxGeometry>
        </mxCell>
        <mxCell id="YWq82JBdALTGHb2d7kdh-212" value="" style="endArrow=none;html=1;rounded=0;" parent="1" edge="1">
          <mxGeometry width="50" height="50" relative="1" as="geometry">
            <mxPoint x="661" y="312" as="sourcePoint" />
            <mxPoint x="679" y="312" as="targetPoint" />
          </mxGeometry>
        </mxCell>
        <mxCell id="YWq82JBdALTGHb2d7kdh-213" value="" style="endArrow=none;html=1;rounded=0;" parent="1" edge="1">
          <mxGeometry width="50" height="50" relative="1" as="geometry">
            <mxPoint x="661" y="318" as="sourcePoint" />
            <mxPoint x="679" y="318" as="targetPoint" />
          </mxGeometry>
        </mxCell>
        <mxCell id="YWq82JBdALTGHb2d7kdh-214" value="" style="endArrow=none;html=1;rounded=0;" parent="1" edge="1">
          <mxGeometry width="50" height="50" relative="1" as="geometry">
            <mxPoint x="661" y="325" as="sourcePoint" />
            <mxPoint x="679" y="325" as="targetPoint" />
          </mxGeometry>
        </mxCell>
        <mxCell id="YWq82JBdALTGHb2d7kdh-215" value="" style="endArrow=none;html=1;rounded=0;" parent="1" edge="1">
          <mxGeometry width="50" height="50" relative="1" as="geometry">
            <mxPoint x="574" y="299.83" as="sourcePoint" />
            <mxPoint x="592" y="299.83" as="targetPoint" />
          </mxGeometry>
        </mxCell>
        <mxCell id="YWq82JBdALTGHb2d7kdh-216" value="" style="endArrow=none;html=1;rounded=0;" parent="1" edge="1">
          <mxGeometry width="50" height="50" relative="1" as="geometry">
            <mxPoint x="574" y="305.83" as="sourcePoint" />
            <mxPoint x="592" y="305.83" as="targetPoint" />
          </mxGeometry>
        </mxCell>
        <mxCell id="YWq82JBdALTGHb2d7kdh-217" value="" style="endArrow=none;html=1;rounded=0;" parent="1" edge="1">
          <mxGeometry width="50" height="50" relative="1" as="geometry">
            <mxPoint x="574" y="312.83" as="sourcePoint" />
            <mxPoint x="592" y="312.83" as="targetPoint" />
          </mxGeometry>
        </mxCell>
        <mxCell id="YWq82JBdALTGHb2d7kdh-218" value="" style="endArrow=none;html=1;rounded=0;" parent="1" edge="1">
          <mxGeometry width="50" height="50" relative="1" as="geometry">
            <mxPoint x="574" y="318.83" as="sourcePoint" />
            <mxPoint x="592" y="318.83" as="targetPoint" />
          </mxGeometry>
        </mxCell>
        <mxCell id="YWq82JBdALTGHb2d7kdh-219" value="" style="endArrow=none;html=1;rounded=0;" parent="1" edge="1">
          <mxGeometry width="50" height="50" relative="1" as="geometry">
            <mxPoint x="574" y="325.83" as="sourcePoint" />
            <mxPoint x="592" y="325.83" as="targetPoint" />
          </mxGeometry>
        </mxCell>
        <mxCell id="YWq82JBdALTGHb2d7kdh-220" value="" style="endArrow=none;html=1;rounded=0;" parent="1" edge="1">
          <mxGeometry width="50" height="50" relative="1" as="geometry">
            <mxPoint x="642.36" y="353" as="sourcePoint" />
            <mxPoint x="642.36" y="337" as="targetPoint" />
          </mxGeometry>
        </mxCell>
        <mxCell id="YWq82JBdALTGHb2d7kdh-221" value="" style="endArrow=none;html=1;rounded=0;" parent="1" edge="1">
          <mxGeometry width="50" height="50" relative="1" as="geometry">
            <mxPoint x="634.36" y="353" as="sourcePoint" />
            <mxPoint x="634.36" y="337" as="targetPoint" />
          </mxGeometry>
        </mxCell>
        <mxCell id="YWq82JBdALTGHb2d7kdh-222" value="" style="endArrow=none;html=1;rounded=0;" parent="1" edge="1">
          <mxGeometry width="50" height="50" relative="1" as="geometry">
            <mxPoint x="626.36" y="353" as="sourcePoint" />
            <mxPoint x="626.36" y="337" as="targetPoint" />
          </mxGeometry>
        </mxCell>
        <mxCell id="YWq82JBdALTGHb2d7kdh-223" value="" style="endArrow=none;html=1;rounded=0;" parent="1" edge="1">
          <mxGeometry width="50" height="50" relative="1" as="geometry">
            <mxPoint x="618.36" y="353" as="sourcePoint" />
            <mxPoint x="618.36" y="337" as="targetPoint" />
          </mxGeometry>
        </mxCell>
        <mxCell id="YWq82JBdALTGHb2d7kdh-224" value="" style="endArrow=none;html=1;rounded=0;" parent="1" edge="1">
          <mxGeometry width="50" height="50" relative="1" as="geometry">
            <mxPoint x="610.36" y="353" as="sourcePoint" />
            <mxPoint x="610.36" y="337" as="targetPoint" />
          </mxGeometry>
        </mxCell>
        <mxCell id="YWq82JBdALTGHb2d7kdh-225" value="" style="endArrow=none;html=1;rounded=0;" parent="1" edge="1">
          <mxGeometry width="50" height="50" relative="1" as="geometry">
            <mxPoint x="642.36" y="289" as="sourcePoint" />
            <mxPoint x="642.36" y="273" as="targetPoint" />
          </mxGeometry>
        </mxCell>
        <mxCell id="YWq82JBdALTGHb2d7kdh-226" value="" style="endArrow=none;html=1;rounded=0;" parent="1" edge="1">
          <mxGeometry width="50" height="50" relative="1" as="geometry">
            <mxPoint x="634.36" y="289" as="sourcePoint" />
            <mxPoint x="634.36" y="273" as="targetPoint" />
          </mxGeometry>
        </mxCell>
        <mxCell id="YWq82JBdALTGHb2d7kdh-227" value="" style="endArrow=none;html=1;rounded=0;" parent="1" edge="1">
          <mxGeometry width="50" height="50" relative="1" as="geometry">
            <mxPoint x="626.36" y="289" as="sourcePoint" />
            <mxPoint x="626.36" y="273" as="targetPoint" />
          </mxGeometry>
        </mxCell>
        <mxCell id="YWq82JBdALTGHb2d7kdh-228" value="" style="endArrow=none;html=1;rounded=0;" parent="1" edge="1">
          <mxGeometry width="50" height="50" relative="1" as="geometry">
            <mxPoint x="618.36" y="289" as="sourcePoint" />
            <mxPoint x="618.36" y="273" as="targetPoint" />
          </mxGeometry>
        </mxCell>
        <mxCell id="YWq82JBdALTGHb2d7kdh-229" value="" style="endArrow=none;html=1;rounded=0;" parent="1" edge="1">
          <mxGeometry width="50" height="50" relative="1" as="geometry">
            <mxPoint x="610.36" y="289" as="sourcePoint" />
            <mxPoint x="610.36" y="273" as="targetPoint" />
          </mxGeometry>
        </mxCell>
        <mxCell id="YWq82JBdALTGHb2d7kdh-230" value="" style="rounded=0;whiteSpace=wrap;html=1;" parent="1" vertex="1">
          <mxGeometry x="444" y="356" width="248" height="87" as="geometry" />
        </mxCell>
        <mxCell id="YWq82JBdALTGHb2d7kdh-231" value="&lt;b&gt;&lt;font style=&quot;font-size: 14px;&quot; face=&quot;Verdana&quot;&gt;CPU&lt;/font&gt;&lt;/b&gt;" style="rounded=0;whiteSpace=wrap;html=1;fillColor=#f5f5f5;strokeColor=#666666;fontColor=#333333;" parent="1" vertex="1">
          <mxGeometry x="474" y="376" width="69" height="48" as="geometry" />
        </mxCell>
        <mxCell id="YWq82JBdALTGHb2d7kdh-232" value="" style="endArrow=none;html=1;rounded=0;" parent="1" edge="1">
          <mxGeometry width="50" height="50" relative="1" as="geometry">
            <mxPoint x="543" y="386" as="sourcePoint" />
            <mxPoint x="561" y="386" as="targetPoint" />
          </mxGeometry>
        </mxCell>
        <mxCell id="YWq82JBdALTGHb2d7kdh-233" value="" style="endArrow=none;html=1;rounded=0;" parent="1" edge="1">
          <mxGeometry width="50" height="50" relative="1" as="geometry">
            <mxPoint x="543" y="392" as="sourcePoint" />
            <mxPoint x="561" y="392" as="targetPoint" />
          </mxGeometry>
        </mxCell>
        <mxCell id="YWq82JBdALTGHb2d7kdh-234" value="" style="endArrow=none;html=1;rounded=0;" parent="1" edge="1">
          <mxGeometry width="50" height="50" relative="1" as="geometry">
            <mxPoint x="543" y="399" as="sourcePoint" />
            <mxPoint x="561" y="399" as="targetPoint" />
          </mxGeometry>
        </mxCell>
        <mxCell id="YWq82JBdALTGHb2d7kdh-235" value="" style="endArrow=none;html=1;rounded=0;" parent="1" edge="1">
          <mxGeometry width="50" height="50" relative="1" as="geometry">
            <mxPoint x="543" y="405" as="sourcePoint" />
            <mxPoint x="561" y="405" as="targetPoint" />
          </mxGeometry>
        </mxCell>
        <mxCell id="YWq82JBdALTGHb2d7kdh-236" value="" style="endArrow=none;html=1;rounded=0;" parent="1" edge="1">
          <mxGeometry width="50" height="50" relative="1" as="geometry">
            <mxPoint x="543" y="412" as="sourcePoint" />
            <mxPoint x="561" y="412" as="targetPoint" />
          </mxGeometry>
        </mxCell>
        <mxCell id="YWq82JBdALTGHb2d7kdh-237" value="" style="endArrow=none;html=1;rounded=0;" parent="1" edge="1">
          <mxGeometry width="50" height="50" relative="1" as="geometry">
            <mxPoint x="456" y="386.83" as="sourcePoint" />
            <mxPoint x="474" y="386.83" as="targetPoint" />
          </mxGeometry>
        </mxCell>
        <mxCell id="YWq82JBdALTGHb2d7kdh-238" value="" style="endArrow=none;html=1;rounded=0;" parent="1" edge="1">
          <mxGeometry width="50" height="50" relative="1" as="geometry">
            <mxPoint x="456" y="392.83" as="sourcePoint" />
            <mxPoint x="474" y="392.83" as="targetPoint" />
          </mxGeometry>
        </mxCell>
        <mxCell id="YWq82JBdALTGHb2d7kdh-239" value="" style="endArrow=none;html=1;rounded=0;" parent="1" edge="1">
          <mxGeometry width="50" height="50" relative="1" as="geometry">
            <mxPoint x="456" y="399.83" as="sourcePoint" />
            <mxPoint x="474" y="399.83" as="targetPoint" />
          </mxGeometry>
        </mxCell>
        <mxCell id="YWq82JBdALTGHb2d7kdh-240" value="" style="endArrow=none;html=1;rounded=0;" parent="1" edge="1">
          <mxGeometry width="50" height="50" relative="1" as="geometry">
            <mxPoint x="456" y="405.83" as="sourcePoint" />
            <mxPoint x="474" y="405.83" as="targetPoint" />
          </mxGeometry>
        </mxCell>
        <mxCell id="YWq82JBdALTGHb2d7kdh-241" value="" style="endArrow=none;html=1;rounded=0;" parent="1" edge="1">
          <mxGeometry width="50" height="50" relative="1" as="geometry">
            <mxPoint x="456" y="412.83" as="sourcePoint" />
            <mxPoint x="474" y="412.83" as="targetPoint" />
          </mxGeometry>
        </mxCell>
        <mxCell id="YWq82JBdALTGHb2d7kdh-242" value="" style="endArrow=none;html=1;rounded=0;" parent="1" edge="1">
          <mxGeometry width="50" height="50" relative="1" as="geometry">
            <mxPoint x="524.36" y="440" as="sourcePoint" />
            <mxPoint x="524.36" y="424" as="targetPoint" />
          </mxGeometry>
        </mxCell>
        <mxCell id="YWq82JBdALTGHb2d7kdh-243" value="" style="endArrow=none;html=1;rounded=0;" parent="1" edge="1">
          <mxGeometry width="50" height="50" relative="1" as="geometry">
            <mxPoint x="516.36" y="440" as="sourcePoint" />
            <mxPoint x="516.36" y="424" as="targetPoint" />
          </mxGeometry>
        </mxCell>
        <mxCell id="YWq82JBdALTGHb2d7kdh-244" value="" style="endArrow=none;html=1;rounded=0;" parent="1" edge="1">
          <mxGeometry width="50" height="50" relative="1" as="geometry">
            <mxPoint x="508.36" y="440" as="sourcePoint" />
            <mxPoint x="508.36" y="424" as="targetPoint" />
          </mxGeometry>
        </mxCell>
        <mxCell id="YWq82JBdALTGHb2d7kdh-245" value="" style="endArrow=none;html=1;rounded=0;" parent="1" edge="1">
          <mxGeometry width="50" height="50" relative="1" as="geometry">
            <mxPoint x="500.36" y="440" as="sourcePoint" />
            <mxPoint x="500.36" y="424" as="targetPoint" />
          </mxGeometry>
        </mxCell>
        <mxCell id="YWq82JBdALTGHb2d7kdh-246" value="" style="endArrow=none;html=1;rounded=0;" parent="1" edge="1">
          <mxGeometry width="50" height="50" relative="1" as="geometry">
            <mxPoint x="492.36" y="440" as="sourcePoint" />
            <mxPoint x="492.36" y="424" as="targetPoint" />
          </mxGeometry>
        </mxCell>
        <mxCell id="YWq82JBdALTGHb2d7kdh-247" value="" style="endArrow=none;html=1;rounded=0;" parent="1" edge="1">
          <mxGeometry width="50" height="50" relative="1" as="geometry">
            <mxPoint x="524.36" y="376" as="sourcePoint" />
            <mxPoint x="524.36" y="360" as="targetPoint" />
          </mxGeometry>
        </mxCell>
        <mxCell id="YWq82JBdALTGHb2d7kdh-248" value="" style="endArrow=none;html=1;rounded=0;" parent="1" edge="1">
          <mxGeometry width="50" height="50" relative="1" as="geometry">
            <mxPoint x="516.36" y="376" as="sourcePoint" />
            <mxPoint x="516.36" y="360" as="targetPoint" />
          </mxGeometry>
        </mxCell>
        <mxCell id="YWq82JBdALTGHb2d7kdh-249" value="" style="endArrow=none;html=1;rounded=0;" parent="1" edge="1">
          <mxGeometry width="50" height="50" relative="1" as="geometry">
            <mxPoint x="508.36" y="376" as="sourcePoint" />
            <mxPoint x="508.36" y="360" as="targetPoint" />
          </mxGeometry>
        </mxCell>
        <mxCell id="YWq82JBdALTGHb2d7kdh-250" value="" style="endArrow=none;html=1;rounded=0;" parent="1" edge="1">
          <mxGeometry width="50" height="50" relative="1" as="geometry">
            <mxPoint x="500.36" y="376" as="sourcePoint" />
            <mxPoint x="500.36" y="360" as="targetPoint" />
          </mxGeometry>
        </mxCell>
        <mxCell id="YWq82JBdALTGHb2d7kdh-251" value="" style="endArrow=none;html=1;rounded=0;" parent="1" edge="1">
          <mxGeometry width="50" height="50" relative="1" as="geometry">
            <mxPoint x="492.36" y="376" as="sourcePoint" />
            <mxPoint x="492.36" y="360" as="targetPoint" />
          </mxGeometry>
        </mxCell>
        <mxCell id="YWq82JBdALTGHb2d7kdh-252" value="&lt;b&gt;&lt;font style=&quot;font-size: 14px;&quot; face=&quot;Verdana&quot;&gt;CPU&lt;/font&gt;&lt;/b&gt;" style="rounded=0;whiteSpace=wrap;html=1;fillColor=#f5f5f5;strokeColor=#666666;fontColor=#333333;" parent="1" vertex="1">
          <mxGeometry x="592" y="376" width="69" height="48" as="geometry" />
        </mxCell>
        <mxCell id="YWq82JBdALTGHb2d7kdh-253" value="" style="endArrow=none;html=1;rounded=0;" parent="1" edge="1">
          <mxGeometry width="50" height="50" relative="1" as="geometry">
            <mxPoint x="661" y="386" as="sourcePoint" />
            <mxPoint x="679" y="386" as="targetPoint" />
          </mxGeometry>
        </mxCell>
        <mxCell id="YWq82JBdALTGHb2d7kdh-254" value="" style="endArrow=none;html=1;rounded=0;" parent="1" edge="1">
          <mxGeometry width="50" height="50" relative="1" as="geometry">
            <mxPoint x="661" y="392" as="sourcePoint" />
            <mxPoint x="679" y="392" as="targetPoint" />
          </mxGeometry>
        </mxCell>
        <mxCell id="YWq82JBdALTGHb2d7kdh-255" value="" style="endArrow=none;html=1;rounded=0;" parent="1" edge="1">
          <mxGeometry width="50" height="50" relative="1" as="geometry">
            <mxPoint x="661" y="399" as="sourcePoint" />
            <mxPoint x="679" y="399" as="targetPoint" />
          </mxGeometry>
        </mxCell>
        <mxCell id="YWq82JBdALTGHb2d7kdh-256" value="" style="endArrow=none;html=1;rounded=0;" parent="1" edge="1">
          <mxGeometry width="50" height="50" relative="1" as="geometry">
            <mxPoint x="661" y="405" as="sourcePoint" />
            <mxPoint x="679" y="405" as="targetPoint" />
          </mxGeometry>
        </mxCell>
        <mxCell id="YWq82JBdALTGHb2d7kdh-257" value="" style="endArrow=none;html=1;rounded=0;" parent="1" edge="1">
          <mxGeometry width="50" height="50" relative="1" as="geometry">
            <mxPoint x="661" y="412" as="sourcePoint" />
            <mxPoint x="679" y="412" as="targetPoint" />
          </mxGeometry>
        </mxCell>
        <mxCell id="YWq82JBdALTGHb2d7kdh-258" value="" style="endArrow=none;html=1;rounded=0;" parent="1" edge="1">
          <mxGeometry width="50" height="50" relative="1" as="geometry">
            <mxPoint x="574" y="386.83" as="sourcePoint" />
            <mxPoint x="592" y="386.83" as="targetPoint" />
          </mxGeometry>
        </mxCell>
        <mxCell id="YWq82JBdALTGHb2d7kdh-259" value="" style="endArrow=none;html=1;rounded=0;" parent="1" edge="1">
          <mxGeometry width="50" height="50" relative="1" as="geometry">
            <mxPoint x="574" y="392.83" as="sourcePoint" />
            <mxPoint x="592" y="392.83" as="targetPoint" />
          </mxGeometry>
        </mxCell>
        <mxCell id="YWq82JBdALTGHb2d7kdh-260" value="" style="endArrow=none;html=1;rounded=0;" parent="1" edge="1">
          <mxGeometry width="50" height="50" relative="1" as="geometry">
            <mxPoint x="574" y="399.83" as="sourcePoint" />
            <mxPoint x="592" y="399.83" as="targetPoint" />
          </mxGeometry>
        </mxCell>
        <mxCell id="YWq82JBdALTGHb2d7kdh-261" value="" style="endArrow=none;html=1;rounded=0;" parent="1" edge="1">
          <mxGeometry width="50" height="50" relative="1" as="geometry">
            <mxPoint x="574" y="405.83" as="sourcePoint" />
            <mxPoint x="592" y="405.83" as="targetPoint" />
          </mxGeometry>
        </mxCell>
        <mxCell id="YWq82JBdALTGHb2d7kdh-262" value="" style="endArrow=none;html=1;rounded=0;" parent="1" edge="1">
          <mxGeometry width="50" height="50" relative="1" as="geometry">
            <mxPoint x="574" y="412.83" as="sourcePoint" />
            <mxPoint x="592" y="412.83" as="targetPoint" />
          </mxGeometry>
        </mxCell>
        <mxCell id="YWq82JBdALTGHb2d7kdh-263" value="" style="endArrow=none;html=1;rounded=0;" parent="1" edge="1">
          <mxGeometry width="50" height="50" relative="1" as="geometry">
            <mxPoint x="642.36" y="440" as="sourcePoint" />
            <mxPoint x="642.36" y="424" as="targetPoint" />
          </mxGeometry>
        </mxCell>
        <mxCell id="YWq82JBdALTGHb2d7kdh-264" value="" style="endArrow=none;html=1;rounded=0;" parent="1" edge="1">
          <mxGeometry width="50" height="50" relative="1" as="geometry">
            <mxPoint x="634.36" y="440" as="sourcePoint" />
            <mxPoint x="634.36" y="424" as="targetPoint" />
          </mxGeometry>
        </mxCell>
        <mxCell id="YWq82JBdALTGHb2d7kdh-265" value="" style="endArrow=none;html=1;rounded=0;" parent="1" edge="1">
          <mxGeometry width="50" height="50" relative="1" as="geometry">
            <mxPoint x="626.36" y="440" as="sourcePoint" />
            <mxPoint x="626.36" y="424" as="targetPoint" />
          </mxGeometry>
        </mxCell>
        <mxCell id="YWq82JBdALTGHb2d7kdh-266" value="" style="endArrow=none;html=1;rounded=0;" parent="1" edge="1">
          <mxGeometry width="50" height="50" relative="1" as="geometry">
            <mxPoint x="618.36" y="440" as="sourcePoint" />
            <mxPoint x="618.36" y="424" as="targetPoint" />
          </mxGeometry>
        </mxCell>
        <mxCell id="YWq82JBdALTGHb2d7kdh-267" value="" style="endArrow=none;html=1;rounded=0;" parent="1" edge="1">
          <mxGeometry width="50" height="50" relative="1" as="geometry">
            <mxPoint x="610.36" y="440" as="sourcePoint" />
            <mxPoint x="610.36" y="424" as="targetPoint" />
          </mxGeometry>
        </mxCell>
        <mxCell id="YWq82JBdALTGHb2d7kdh-268" value="" style="endArrow=none;html=1;rounded=0;" parent="1" edge="1">
          <mxGeometry width="50" height="50" relative="1" as="geometry">
            <mxPoint x="642.36" y="376" as="sourcePoint" />
            <mxPoint x="642.36" y="360" as="targetPoint" />
          </mxGeometry>
        </mxCell>
        <mxCell id="YWq82JBdALTGHb2d7kdh-269" value="" style="endArrow=none;html=1;rounded=0;" parent="1" edge="1">
          <mxGeometry width="50" height="50" relative="1" as="geometry">
            <mxPoint x="634.36" y="376" as="sourcePoint" />
            <mxPoint x="634.36" y="360" as="targetPoint" />
          </mxGeometry>
        </mxCell>
        <mxCell id="YWq82JBdALTGHb2d7kdh-270" value="" style="endArrow=none;html=1;rounded=0;" parent="1" edge="1">
          <mxGeometry width="50" height="50" relative="1" as="geometry">
            <mxPoint x="626.36" y="376" as="sourcePoint" />
            <mxPoint x="626.36" y="360" as="targetPoint" />
          </mxGeometry>
        </mxCell>
        <mxCell id="YWq82JBdALTGHb2d7kdh-271" value="" style="endArrow=none;html=1;rounded=0;" parent="1" edge="1">
          <mxGeometry width="50" height="50" relative="1" as="geometry">
            <mxPoint x="618.36" y="376" as="sourcePoint" />
            <mxPoint x="618.36" y="360" as="targetPoint" />
          </mxGeometry>
        </mxCell>
        <mxCell id="YWq82JBdALTGHb2d7kdh-272" value="" style="endArrow=none;html=1;rounded=0;" parent="1" edge="1">
          <mxGeometry width="50" height="50" relative="1" as="geometry">
            <mxPoint x="610.36" y="376" as="sourcePoint" />
            <mxPoint x="610.36" y="360" as="targetPoint" />
          </mxGeometry>
        </mxCell>
        <mxCell id="YWq82JBdALTGHb2d7kdh-273" value="&lt;font style=&quot;font-size: 18px;&quot;&gt;{&quot;CPU&quot;:6}&lt;/font&gt;" style="text;html=1;align=center;verticalAlign=middle;whiteSpace=wrap;rounded=0;fontFamily=Courier New;fontSize=18;fontStyle=1" parent="1" vertex="1">
          <mxGeometry x="588" y="110" width="118" height="30" as="geometry" />
        </mxCell>
        <mxCell id="YWq82JBdALTGHb2d7kdh-274" value="" style="rounded=0;whiteSpace=wrap;html=1;" parent="1" vertex="1">
          <mxGeometry x="752" y="110" width="281" height="350" as="geometry" />
        </mxCell>
        <mxCell id="YWq82JBdALTGHb2d7kdh-275" value="" style="rounded=0;whiteSpace=wrap;html=1;" parent="1" vertex="1">
          <mxGeometry x="771" y="178" width="248" height="91" as="geometry" />
        </mxCell>
        <mxCell id="YWq82JBdALTGHb2d7kdh-276" value="&lt;b&gt;&lt;font style=&quot;font-size: 14px;&quot; face=&quot;Verdana&quot;&gt;CPU&lt;/font&gt;&lt;/b&gt;" style="rounded=0;whiteSpace=wrap;html=1;fillColor=#f5f5f5;strokeColor=#666666;fontColor=#333333;" parent="1" vertex="1">
          <mxGeometry x="801" y="202" width="69" height="48" as="geometry" />
        </mxCell>
        <mxCell id="YWq82JBdALTGHb2d7kdh-277" value="" style="endArrow=none;html=1;rounded=0;" parent="1" edge="1">
          <mxGeometry width="50" height="50" relative="1" as="geometry">
            <mxPoint x="870" y="212" as="sourcePoint" />
            <mxPoint x="888" y="212" as="targetPoint" />
          </mxGeometry>
        </mxCell>
        <mxCell id="YWq82JBdALTGHb2d7kdh-278" value="" style="endArrow=none;html=1;rounded=0;" parent="1" edge="1">
          <mxGeometry width="50" height="50" relative="1" as="geometry">
            <mxPoint x="870" y="218" as="sourcePoint" />
            <mxPoint x="888" y="218" as="targetPoint" />
          </mxGeometry>
        </mxCell>
        <mxCell id="YWq82JBdALTGHb2d7kdh-279" value="" style="endArrow=none;html=1;rounded=0;" parent="1" edge="1">
          <mxGeometry width="50" height="50" relative="1" as="geometry">
            <mxPoint x="870" y="225" as="sourcePoint" />
            <mxPoint x="888" y="225" as="targetPoint" />
          </mxGeometry>
        </mxCell>
        <mxCell id="YWq82JBdALTGHb2d7kdh-280" value="" style="endArrow=none;html=1;rounded=0;" parent="1" edge="1">
          <mxGeometry width="50" height="50" relative="1" as="geometry">
            <mxPoint x="870" y="231" as="sourcePoint" />
            <mxPoint x="888" y="231" as="targetPoint" />
          </mxGeometry>
        </mxCell>
        <mxCell id="YWq82JBdALTGHb2d7kdh-281" value="" style="endArrow=none;html=1;rounded=0;" parent="1" edge="1">
          <mxGeometry width="50" height="50" relative="1" as="geometry">
            <mxPoint x="870" y="238" as="sourcePoint" />
            <mxPoint x="888" y="238" as="targetPoint" />
          </mxGeometry>
        </mxCell>
        <mxCell id="YWq82JBdALTGHb2d7kdh-282" value="" style="endArrow=none;html=1;rounded=0;" parent="1" edge="1">
          <mxGeometry width="50" height="50" relative="1" as="geometry">
            <mxPoint x="783" y="212.82999999999998" as="sourcePoint" />
            <mxPoint x="801" y="212.82999999999998" as="targetPoint" />
          </mxGeometry>
        </mxCell>
        <mxCell id="YWq82JBdALTGHb2d7kdh-283" value="" style="endArrow=none;html=1;rounded=0;" parent="1" edge="1">
          <mxGeometry width="50" height="50" relative="1" as="geometry">
            <mxPoint x="783" y="218.82999999999998" as="sourcePoint" />
            <mxPoint x="801" y="218.82999999999998" as="targetPoint" />
          </mxGeometry>
        </mxCell>
        <mxCell id="YWq82JBdALTGHb2d7kdh-284" value="" style="endArrow=none;html=1;rounded=0;" parent="1" edge="1">
          <mxGeometry width="50" height="50" relative="1" as="geometry">
            <mxPoint x="783" y="225.82999999999998" as="sourcePoint" />
            <mxPoint x="801" y="225.82999999999998" as="targetPoint" />
          </mxGeometry>
        </mxCell>
        <mxCell id="YWq82JBdALTGHb2d7kdh-285" value="" style="endArrow=none;html=1;rounded=0;" parent="1" edge="1">
          <mxGeometry width="50" height="50" relative="1" as="geometry">
            <mxPoint x="783" y="231.82999999999998" as="sourcePoint" />
            <mxPoint x="801" y="231.82999999999998" as="targetPoint" />
          </mxGeometry>
        </mxCell>
        <mxCell id="YWq82JBdALTGHb2d7kdh-286" value="" style="endArrow=none;html=1;rounded=0;" parent="1" edge="1">
          <mxGeometry width="50" height="50" relative="1" as="geometry">
            <mxPoint x="783" y="238.82999999999998" as="sourcePoint" />
            <mxPoint x="801" y="238.82999999999998" as="targetPoint" />
          </mxGeometry>
        </mxCell>
        <mxCell id="YWq82JBdALTGHb2d7kdh-287" value="" style="endArrow=none;html=1;rounded=0;" parent="1" edge="1">
          <mxGeometry width="50" height="50" relative="1" as="geometry">
            <mxPoint x="851.36" y="266" as="sourcePoint" />
            <mxPoint x="851.36" y="250" as="targetPoint" />
          </mxGeometry>
        </mxCell>
        <mxCell id="YWq82JBdALTGHb2d7kdh-288" value="" style="endArrow=none;html=1;rounded=0;" parent="1" edge="1">
          <mxGeometry width="50" height="50" relative="1" as="geometry">
            <mxPoint x="843.36" y="266" as="sourcePoint" />
            <mxPoint x="843.36" y="250" as="targetPoint" />
          </mxGeometry>
        </mxCell>
        <mxCell id="YWq82JBdALTGHb2d7kdh-289" value="" style="endArrow=none;html=1;rounded=0;" parent="1" edge="1">
          <mxGeometry width="50" height="50" relative="1" as="geometry">
            <mxPoint x="835.36" y="266" as="sourcePoint" />
            <mxPoint x="835.36" y="250" as="targetPoint" />
          </mxGeometry>
        </mxCell>
        <mxCell id="YWq82JBdALTGHb2d7kdh-290" value="" style="endArrow=none;html=1;rounded=0;" parent="1" edge="1">
          <mxGeometry width="50" height="50" relative="1" as="geometry">
            <mxPoint x="827.36" y="266" as="sourcePoint" />
            <mxPoint x="827.36" y="250" as="targetPoint" />
          </mxGeometry>
        </mxCell>
        <mxCell id="YWq82JBdALTGHb2d7kdh-291" value="" style="endArrow=none;html=1;rounded=0;" parent="1" edge="1">
          <mxGeometry width="50" height="50" relative="1" as="geometry">
            <mxPoint x="819.36" y="266" as="sourcePoint" />
            <mxPoint x="819.36" y="250" as="targetPoint" />
          </mxGeometry>
        </mxCell>
        <mxCell id="YWq82JBdALTGHb2d7kdh-292" value="" style="endArrow=none;html=1;rounded=0;" parent="1" edge="1">
          <mxGeometry width="50" height="50" relative="1" as="geometry">
            <mxPoint x="851.36" y="202" as="sourcePoint" />
            <mxPoint x="851.36" y="186" as="targetPoint" />
          </mxGeometry>
        </mxCell>
        <mxCell id="YWq82JBdALTGHb2d7kdh-293" value="" style="endArrow=none;html=1;rounded=0;" parent="1" edge="1">
          <mxGeometry width="50" height="50" relative="1" as="geometry">
            <mxPoint x="843.36" y="202" as="sourcePoint" />
            <mxPoint x="843.36" y="186" as="targetPoint" />
          </mxGeometry>
        </mxCell>
        <mxCell id="YWq82JBdALTGHb2d7kdh-294" value="" style="endArrow=none;html=1;rounded=0;" parent="1" edge="1">
          <mxGeometry width="50" height="50" relative="1" as="geometry">
            <mxPoint x="835.36" y="202" as="sourcePoint" />
            <mxPoint x="835.36" y="186" as="targetPoint" />
          </mxGeometry>
        </mxCell>
        <mxCell id="YWq82JBdALTGHb2d7kdh-295" value="" style="endArrow=none;html=1;rounded=0;" parent="1" edge="1">
          <mxGeometry width="50" height="50" relative="1" as="geometry">
            <mxPoint x="827.36" y="202" as="sourcePoint" />
            <mxPoint x="827.36" y="186" as="targetPoint" />
          </mxGeometry>
        </mxCell>
        <mxCell id="YWq82JBdALTGHb2d7kdh-296" value="" style="endArrow=none;html=1;rounded=0;" parent="1" edge="1">
          <mxGeometry width="50" height="50" relative="1" as="geometry">
            <mxPoint x="819.36" y="202" as="sourcePoint" />
            <mxPoint x="819.36" y="186" as="targetPoint" />
          </mxGeometry>
        </mxCell>
        <mxCell id="YWq82JBdALTGHb2d7kdh-297" value="&lt;b&gt;&lt;font style=&quot;font-size: 14px;&quot; face=&quot;Verdana&quot;&gt;CPU&lt;/font&gt;&lt;/b&gt;" style="rounded=0;whiteSpace=wrap;html=1;fillColor=#f5f5f5;strokeColor=#666666;fontColor=#333333;" parent="1" vertex="1">
          <mxGeometry x="919" y="202" width="69" height="48" as="geometry" />
        </mxCell>
        <mxCell id="YWq82JBdALTGHb2d7kdh-298" value="" style="endArrow=none;html=1;rounded=0;" parent="1" edge="1">
          <mxGeometry width="50" height="50" relative="1" as="geometry">
            <mxPoint x="988" y="212" as="sourcePoint" />
            <mxPoint x="1006" y="212" as="targetPoint" />
          </mxGeometry>
        </mxCell>
        <mxCell id="YWq82JBdALTGHb2d7kdh-299" value="" style="endArrow=none;html=1;rounded=0;" parent="1" edge="1">
          <mxGeometry width="50" height="50" relative="1" as="geometry">
            <mxPoint x="988" y="218" as="sourcePoint" />
            <mxPoint x="1006" y="218" as="targetPoint" />
          </mxGeometry>
        </mxCell>
        <mxCell id="YWq82JBdALTGHb2d7kdh-300" value="" style="endArrow=none;html=1;rounded=0;" parent="1" edge="1">
          <mxGeometry width="50" height="50" relative="1" as="geometry">
            <mxPoint x="988" y="225" as="sourcePoint" />
            <mxPoint x="1006" y="225" as="targetPoint" />
          </mxGeometry>
        </mxCell>
        <mxCell id="YWq82JBdALTGHb2d7kdh-301" value="" style="endArrow=none;html=1;rounded=0;" parent="1" edge="1">
          <mxGeometry width="50" height="50" relative="1" as="geometry">
            <mxPoint x="988" y="231" as="sourcePoint" />
            <mxPoint x="1006" y="231" as="targetPoint" />
          </mxGeometry>
        </mxCell>
        <mxCell id="YWq82JBdALTGHb2d7kdh-302" value="" style="endArrow=none;html=1;rounded=0;" parent="1" edge="1">
          <mxGeometry width="50" height="50" relative="1" as="geometry">
            <mxPoint x="988" y="238" as="sourcePoint" />
            <mxPoint x="1006" y="238" as="targetPoint" />
          </mxGeometry>
        </mxCell>
        <mxCell id="YWq82JBdALTGHb2d7kdh-303" value="" style="endArrow=none;html=1;rounded=0;" parent="1" edge="1">
          <mxGeometry width="50" height="50" relative="1" as="geometry">
            <mxPoint x="901" y="212.82999999999998" as="sourcePoint" />
            <mxPoint x="919" y="212.82999999999998" as="targetPoint" />
          </mxGeometry>
        </mxCell>
        <mxCell id="YWq82JBdALTGHb2d7kdh-304" value="" style="endArrow=none;html=1;rounded=0;" parent="1" edge="1">
          <mxGeometry width="50" height="50" relative="1" as="geometry">
            <mxPoint x="901" y="218.82999999999998" as="sourcePoint" />
            <mxPoint x="919" y="218.82999999999998" as="targetPoint" />
          </mxGeometry>
        </mxCell>
        <mxCell id="YWq82JBdALTGHb2d7kdh-305" value="" style="endArrow=none;html=1;rounded=0;" parent="1" edge="1">
          <mxGeometry width="50" height="50" relative="1" as="geometry">
            <mxPoint x="901" y="225.82999999999998" as="sourcePoint" />
            <mxPoint x="919" y="225.82999999999998" as="targetPoint" />
          </mxGeometry>
        </mxCell>
        <mxCell id="YWq82JBdALTGHb2d7kdh-306" value="" style="endArrow=none;html=1;rounded=0;" parent="1" edge="1">
          <mxGeometry width="50" height="50" relative="1" as="geometry">
            <mxPoint x="901" y="231.82999999999998" as="sourcePoint" />
            <mxPoint x="919" y="231.82999999999998" as="targetPoint" />
          </mxGeometry>
        </mxCell>
        <mxCell id="YWq82JBdALTGHb2d7kdh-307" value="" style="endArrow=none;html=1;rounded=0;" parent="1" edge="1">
          <mxGeometry width="50" height="50" relative="1" as="geometry">
            <mxPoint x="901" y="238.82999999999998" as="sourcePoint" />
            <mxPoint x="919" y="238.82999999999998" as="targetPoint" />
          </mxGeometry>
        </mxCell>
        <mxCell id="YWq82JBdALTGHb2d7kdh-308" value="" style="endArrow=none;html=1;rounded=0;" parent="1" edge="1">
          <mxGeometry width="50" height="50" relative="1" as="geometry">
            <mxPoint x="969.36" y="266" as="sourcePoint" />
            <mxPoint x="969.36" y="250" as="targetPoint" />
          </mxGeometry>
        </mxCell>
        <mxCell id="YWq82JBdALTGHb2d7kdh-309" value="" style="endArrow=none;html=1;rounded=0;" parent="1" edge="1">
          <mxGeometry width="50" height="50" relative="1" as="geometry">
            <mxPoint x="961.36" y="266" as="sourcePoint" />
            <mxPoint x="961.36" y="250" as="targetPoint" />
          </mxGeometry>
        </mxCell>
        <mxCell id="YWq82JBdALTGHb2d7kdh-310" value="" style="endArrow=none;html=1;rounded=0;" parent="1" edge="1">
          <mxGeometry width="50" height="50" relative="1" as="geometry">
            <mxPoint x="953.36" y="266" as="sourcePoint" />
            <mxPoint x="953.36" y="250" as="targetPoint" />
          </mxGeometry>
        </mxCell>
        <mxCell id="YWq82JBdALTGHb2d7kdh-311" value="" style="endArrow=none;html=1;rounded=0;" parent="1" edge="1">
          <mxGeometry width="50" height="50" relative="1" as="geometry">
            <mxPoint x="945.36" y="266" as="sourcePoint" />
            <mxPoint x="945.36" y="250" as="targetPoint" />
          </mxGeometry>
        </mxCell>
        <mxCell id="YWq82JBdALTGHb2d7kdh-312" value="" style="endArrow=none;html=1;rounded=0;" parent="1" edge="1">
          <mxGeometry width="50" height="50" relative="1" as="geometry">
            <mxPoint x="937.36" y="266" as="sourcePoint" />
            <mxPoint x="937.36" y="250" as="targetPoint" />
          </mxGeometry>
        </mxCell>
        <mxCell id="YWq82JBdALTGHb2d7kdh-313" value="" style="endArrow=none;html=1;rounded=0;" parent="1" edge="1">
          <mxGeometry width="50" height="50" relative="1" as="geometry">
            <mxPoint x="969.36" y="202" as="sourcePoint" />
            <mxPoint x="969.36" y="186" as="targetPoint" />
          </mxGeometry>
        </mxCell>
        <mxCell id="YWq82JBdALTGHb2d7kdh-314" value="" style="endArrow=none;html=1;rounded=0;" parent="1" edge="1">
          <mxGeometry width="50" height="50" relative="1" as="geometry">
            <mxPoint x="961.36" y="202" as="sourcePoint" />
            <mxPoint x="961.36" y="186" as="targetPoint" />
          </mxGeometry>
        </mxCell>
        <mxCell id="YWq82JBdALTGHb2d7kdh-315" value="" style="endArrow=none;html=1;rounded=0;" parent="1" edge="1">
          <mxGeometry width="50" height="50" relative="1" as="geometry">
            <mxPoint x="953.36" y="202" as="sourcePoint" />
            <mxPoint x="953.36" y="186" as="targetPoint" />
          </mxGeometry>
        </mxCell>
        <mxCell id="YWq82JBdALTGHb2d7kdh-316" value="" style="endArrow=none;html=1;rounded=0;" parent="1" edge="1">
          <mxGeometry width="50" height="50" relative="1" as="geometry">
            <mxPoint x="945.36" y="202" as="sourcePoint" />
            <mxPoint x="945.36" y="186" as="targetPoint" />
          </mxGeometry>
        </mxCell>
        <mxCell id="YWq82JBdALTGHb2d7kdh-317" value="" style="endArrow=none;html=1;rounded=0;" parent="1" edge="1">
          <mxGeometry width="50" height="50" relative="1" as="geometry">
            <mxPoint x="937.36" y="202" as="sourcePoint" />
            <mxPoint x="937.36" y="186" as="targetPoint" />
          </mxGeometry>
        </mxCell>
        <mxCell id="YWq82JBdALTGHb2d7kdh-318" value="" style="rounded=0;whiteSpace=wrap;html=1;" parent="1" vertex="1">
          <mxGeometry x="771" y="269" width="248" height="87" as="geometry" />
        </mxCell>
        <mxCell id="YWq82JBdALTGHb2d7kdh-319" value="&lt;b&gt;&lt;font style=&quot;font-size: 14px;&quot; face=&quot;Verdana&quot;&gt;CPU&lt;/font&gt;&lt;/b&gt;" style="rounded=0;whiteSpace=wrap;html=1;fillColor=#f5f5f5;strokeColor=#666666;fontColor=#333333;" parent="1" vertex="1">
          <mxGeometry x="801" y="289" width="69" height="48" as="geometry" />
        </mxCell>
        <mxCell id="YWq82JBdALTGHb2d7kdh-320" value="" style="endArrow=none;html=1;rounded=0;" parent="1" edge="1">
          <mxGeometry width="50" height="50" relative="1" as="geometry">
            <mxPoint x="870" y="299" as="sourcePoint" />
            <mxPoint x="888" y="299" as="targetPoint" />
          </mxGeometry>
        </mxCell>
        <mxCell id="YWq82JBdALTGHb2d7kdh-321" value="" style="endArrow=none;html=1;rounded=0;" parent="1" edge="1">
          <mxGeometry width="50" height="50" relative="1" as="geometry">
            <mxPoint x="870" y="305" as="sourcePoint" />
            <mxPoint x="888" y="305" as="targetPoint" />
          </mxGeometry>
        </mxCell>
        <mxCell id="YWq82JBdALTGHb2d7kdh-322" value="" style="endArrow=none;html=1;rounded=0;" parent="1" edge="1">
          <mxGeometry width="50" height="50" relative="1" as="geometry">
            <mxPoint x="870" y="312" as="sourcePoint" />
            <mxPoint x="888" y="312" as="targetPoint" />
          </mxGeometry>
        </mxCell>
        <mxCell id="YWq82JBdALTGHb2d7kdh-323" value="" style="endArrow=none;html=1;rounded=0;" parent="1" edge="1">
          <mxGeometry width="50" height="50" relative="1" as="geometry">
            <mxPoint x="870" y="318" as="sourcePoint" />
            <mxPoint x="888" y="318" as="targetPoint" />
          </mxGeometry>
        </mxCell>
        <mxCell id="YWq82JBdALTGHb2d7kdh-324" value="" style="endArrow=none;html=1;rounded=0;" parent="1" edge="1">
          <mxGeometry width="50" height="50" relative="1" as="geometry">
            <mxPoint x="870" y="325" as="sourcePoint" />
            <mxPoint x="888" y="325" as="targetPoint" />
          </mxGeometry>
        </mxCell>
        <mxCell id="YWq82JBdALTGHb2d7kdh-325" value="" style="endArrow=none;html=1;rounded=0;" parent="1" edge="1">
          <mxGeometry width="50" height="50" relative="1" as="geometry">
            <mxPoint x="783" y="299.83" as="sourcePoint" />
            <mxPoint x="801" y="299.83" as="targetPoint" />
          </mxGeometry>
        </mxCell>
        <mxCell id="YWq82JBdALTGHb2d7kdh-326" value="" style="endArrow=none;html=1;rounded=0;" parent="1" edge="1">
          <mxGeometry width="50" height="50" relative="1" as="geometry">
            <mxPoint x="783" y="305.83" as="sourcePoint" />
            <mxPoint x="801" y="305.83" as="targetPoint" />
          </mxGeometry>
        </mxCell>
        <mxCell id="YWq82JBdALTGHb2d7kdh-327" value="" style="endArrow=none;html=1;rounded=0;" parent="1" edge="1">
          <mxGeometry width="50" height="50" relative="1" as="geometry">
            <mxPoint x="783" y="312.83" as="sourcePoint" />
            <mxPoint x="801" y="312.83" as="targetPoint" />
          </mxGeometry>
        </mxCell>
        <mxCell id="YWq82JBdALTGHb2d7kdh-328" value="" style="endArrow=none;html=1;rounded=0;" parent="1" edge="1">
          <mxGeometry width="50" height="50" relative="1" as="geometry">
            <mxPoint x="783" y="318.83" as="sourcePoint" />
            <mxPoint x="801" y="318.83" as="targetPoint" />
          </mxGeometry>
        </mxCell>
        <mxCell id="YWq82JBdALTGHb2d7kdh-329" value="" style="endArrow=none;html=1;rounded=0;" parent="1" edge="1">
          <mxGeometry width="50" height="50" relative="1" as="geometry">
            <mxPoint x="783" y="325.83" as="sourcePoint" />
            <mxPoint x="801" y="325.83" as="targetPoint" />
          </mxGeometry>
        </mxCell>
        <mxCell id="YWq82JBdALTGHb2d7kdh-330" value="" style="endArrow=none;html=1;rounded=0;" parent="1" edge="1">
          <mxGeometry width="50" height="50" relative="1" as="geometry">
            <mxPoint x="851.36" y="353" as="sourcePoint" />
            <mxPoint x="851.36" y="337" as="targetPoint" />
          </mxGeometry>
        </mxCell>
        <mxCell id="YWq82JBdALTGHb2d7kdh-331" value="" style="endArrow=none;html=1;rounded=0;" parent="1" edge="1">
          <mxGeometry width="50" height="50" relative="1" as="geometry">
            <mxPoint x="843.36" y="353" as="sourcePoint" />
            <mxPoint x="843.36" y="337" as="targetPoint" />
          </mxGeometry>
        </mxCell>
        <mxCell id="YWq82JBdALTGHb2d7kdh-332" value="" style="endArrow=none;html=1;rounded=0;" parent="1" edge="1">
          <mxGeometry width="50" height="50" relative="1" as="geometry">
            <mxPoint x="835.36" y="353" as="sourcePoint" />
            <mxPoint x="835.36" y="337" as="targetPoint" />
          </mxGeometry>
        </mxCell>
        <mxCell id="YWq82JBdALTGHb2d7kdh-333" value="" style="endArrow=none;html=1;rounded=0;" parent="1" edge="1">
          <mxGeometry width="50" height="50" relative="1" as="geometry">
            <mxPoint x="827.36" y="353" as="sourcePoint" />
            <mxPoint x="827.36" y="337" as="targetPoint" />
          </mxGeometry>
        </mxCell>
        <mxCell id="YWq82JBdALTGHb2d7kdh-334" value="" style="endArrow=none;html=1;rounded=0;" parent="1" edge="1">
          <mxGeometry width="50" height="50" relative="1" as="geometry">
            <mxPoint x="819.36" y="353" as="sourcePoint" />
            <mxPoint x="819.36" y="337" as="targetPoint" />
          </mxGeometry>
        </mxCell>
        <mxCell id="YWq82JBdALTGHb2d7kdh-335" value="" style="endArrow=none;html=1;rounded=0;" parent="1" edge="1">
          <mxGeometry width="50" height="50" relative="1" as="geometry">
            <mxPoint x="851.36" y="289" as="sourcePoint" />
            <mxPoint x="851.36" y="273" as="targetPoint" />
          </mxGeometry>
        </mxCell>
        <mxCell id="YWq82JBdALTGHb2d7kdh-336" value="" style="endArrow=none;html=1;rounded=0;" parent="1" edge="1">
          <mxGeometry width="50" height="50" relative="1" as="geometry">
            <mxPoint x="843.36" y="289" as="sourcePoint" />
            <mxPoint x="843.36" y="273" as="targetPoint" />
          </mxGeometry>
        </mxCell>
        <mxCell id="YWq82JBdALTGHb2d7kdh-337" value="" style="endArrow=none;html=1;rounded=0;" parent="1" edge="1">
          <mxGeometry width="50" height="50" relative="1" as="geometry">
            <mxPoint x="835.36" y="289" as="sourcePoint" />
            <mxPoint x="835.36" y="273" as="targetPoint" />
          </mxGeometry>
        </mxCell>
        <mxCell id="YWq82JBdALTGHb2d7kdh-338" value="" style="endArrow=none;html=1;rounded=0;" parent="1" edge="1">
          <mxGeometry width="50" height="50" relative="1" as="geometry">
            <mxPoint x="827.36" y="289" as="sourcePoint" />
            <mxPoint x="827.36" y="273" as="targetPoint" />
          </mxGeometry>
        </mxCell>
        <mxCell id="YWq82JBdALTGHb2d7kdh-339" value="" style="endArrow=none;html=1;rounded=0;" parent="1" edge="1">
          <mxGeometry width="50" height="50" relative="1" as="geometry">
            <mxPoint x="819.36" y="289" as="sourcePoint" />
            <mxPoint x="819.36" y="273" as="targetPoint" />
          </mxGeometry>
        </mxCell>
        <mxCell id="YWq82JBdALTGHb2d7kdh-340" value="&lt;b&gt;&lt;font style=&quot;font-size: 14px;&quot; face=&quot;Verdana&quot;&gt;CPU&lt;/font&gt;&lt;/b&gt;" style="rounded=0;whiteSpace=wrap;html=1;fillColor=#f5f5f5;strokeColor=#666666;fontColor=#333333;" parent="1" vertex="1">
          <mxGeometry x="919" y="289" width="69" height="48" as="geometry" />
        </mxCell>
        <mxCell id="YWq82JBdALTGHb2d7kdh-341" value="" style="endArrow=none;html=1;rounded=0;" parent="1" edge="1">
          <mxGeometry width="50" height="50" relative="1" as="geometry">
            <mxPoint x="988" y="299" as="sourcePoint" />
            <mxPoint x="1006" y="299" as="targetPoint" />
          </mxGeometry>
        </mxCell>
        <mxCell id="YWq82JBdALTGHb2d7kdh-342" value="" style="endArrow=none;html=1;rounded=0;" parent="1" edge="1">
          <mxGeometry width="50" height="50" relative="1" as="geometry">
            <mxPoint x="988" y="305" as="sourcePoint" />
            <mxPoint x="1006" y="305" as="targetPoint" />
          </mxGeometry>
        </mxCell>
        <mxCell id="YWq82JBdALTGHb2d7kdh-343" value="" style="endArrow=none;html=1;rounded=0;" parent="1" edge="1">
          <mxGeometry width="50" height="50" relative="1" as="geometry">
            <mxPoint x="988" y="312" as="sourcePoint" />
            <mxPoint x="1006" y="312" as="targetPoint" />
          </mxGeometry>
        </mxCell>
        <mxCell id="YWq82JBdALTGHb2d7kdh-344" value="" style="endArrow=none;html=1;rounded=0;" parent="1" edge="1">
          <mxGeometry width="50" height="50" relative="1" as="geometry">
            <mxPoint x="988" y="318" as="sourcePoint" />
            <mxPoint x="1006" y="318" as="targetPoint" />
          </mxGeometry>
        </mxCell>
        <mxCell id="YWq82JBdALTGHb2d7kdh-345" value="" style="endArrow=none;html=1;rounded=0;" parent="1" edge="1">
          <mxGeometry width="50" height="50" relative="1" as="geometry">
            <mxPoint x="988" y="325" as="sourcePoint" />
            <mxPoint x="1006" y="325" as="targetPoint" />
          </mxGeometry>
        </mxCell>
        <mxCell id="YWq82JBdALTGHb2d7kdh-346" value="" style="endArrow=none;html=1;rounded=0;" parent="1" edge="1">
          <mxGeometry width="50" height="50" relative="1" as="geometry">
            <mxPoint x="901" y="299.83" as="sourcePoint" />
            <mxPoint x="919" y="299.83" as="targetPoint" />
          </mxGeometry>
        </mxCell>
        <mxCell id="YWq82JBdALTGHb2d7kdh-347" value="" style="endArrow=none;html=1;rounded=0;" parent="1" edge="1">
          <mxGeometry width="50" height="50" relative="1" as="geometry">
            <mxPoint x="901" y="305.83" as="sourcePoint" />
            <mxPoint x="919" y="305.83" as="targetPoint" />
          </mxGeometry>
        </mxCell>
        <mxCell id="YWq82JBdALTGHb2d7kdh-348" value="" style="endArrow=none;html=1;rounded=0;" parent="1" edge="1">
          <mxGeometry width="50" height="50" relative="1" as="geometry">
            <mxPoint x="901" y="312.83" as="sourcePoint" />
            <mxPoint x="919" y="312.83" as="targetPoint" />
          </mxGeometry>
        </mxCell>
        <mxCell id="YWq82JBdALTGHb2d7kdh-349" value="" style="endArrow=none;html=1;rounded=0;" parent="1" edge="1">
          <mxGeometry width="50" height="50" relative="1" as="geometry">
            <mxPoint x="901" y="318.83" as="sourcePoint" />
            <mxPoint x="919" y="318.83" as="targetPoint" />
          </mxGeometry>
        </mxCell>
        <mxCell id="YWq82JBdALTGHb2d7kdh-350" value="" style="endArrow=none;html=1;rounded=0;" parent="1" edge="1">
          <mxGeometry width="50" height="50" relative="1" as="geometry">
            <mxPoint x="901" y="325.83" as="sourcePoint" />
            <mxPoint x="919" y="325.83" as="targetPoint" />
          </mxGeometry>
        </mxCell>
        <mxCell id="YWq82JBdALTGHb2d7kdh-351" value="" style="endArrow=none;html=1;rounded=0;" parent="1" edge="1">
          <mxGeometry width="50" height="50" relative="1" as="geometry">
            <mxPoint x="969.36" y="353" as="sourcePoint" />
            <mxPoint x="969.36" y="337" as="targetPoint" />
          </mxGeometry>
        </mxCell>
        <mxCell id="YWq82JBdALTGHb2d7kdh-352" value="" style="endArrow=none;html=1;rounded=0;" parent="1" edge="1">
          <mxGeometry width="50" height="50" relative="1" as="geometry">
            <mxPoint x="961.36" y="353" as="sourcePoint" />
            <mxPoint x="961.36" y="337" as="targetPoint" />
          </mxGeometry>
        </mxCell>
        <mxCell id="YWq82JBdALTGHb2d7kdh-353" value="" style="endArrow=none;html=1;rounded=0;" parent="1" edge="1">
          <mxGeometry width="50" height="50" relative="1" as="geometry">
            <mxPoint x="953.36" y="353" as="sourcePoint" />
            <mxPoint x="953.36" y="337" as="targetPoint" />
          </mxGeometry>
        </mxCell>
        <mxCell id="YWq82JBdALTGHb2d7kdh-354" value="" style="endArrow=none;html=1;rounded=0;" parent="1" edge="1">
          <mxGeometry width="50" height="50" relative="1" as="geometry">
            <mxPoint x="945.36" y="353" as="sourcePoint" />
            <mxPoint x="945.36" y="337" as="targetPoint" />
          </mxGeometry>
        </mxCell>
        <mxCell id="YWq82JBdALTGHb2d7kdh-355" value="" style="endArrow=none;html=1;rounded=0;" parent="1" edge="1">
          <mxGeometry width="50" height="50" relative="1" as="geometry">
            <mxPoint x="937.36" y="353" as="sourcePoint" />
            <mxPoint x="937.36" y="337" as="targetPoint" />
          </mxGeometry>
        </mxCell>
        <mxCell id="YWq82JBdALTGHb2d7kdh-356" value="" style="endArrow=none;html=1;rounded=0;" parent="1" edge="1">
          <mxGeometry width="50" height="50" relative="1" as="geometry">
            <mxPoint x="969.36" y="289" as="sourcePoint" />
            <mxPoint x="969.36" y="273" as="targetPoint" />
          </mxGeometry>
        </mxCell>
        <mxCell id="YWq82JBdALTGHb2d7kdh-357" value="" style="endArrow=none;html=1;rounded=0;" parent="1" edge="1">
          <mxGeometry width="50" height="50" relative="1" as="geometry">
            <mxPoint x="961.36" y="289" as="sourcePoint" />
            <mxPoint x="961.36" y="273" as="targetPoint" />
          </mxGeometry>
        </mxCell>
        <mxCell id="YWq82JBdALTGHb2d7kdh-358" value="" style="endArrow=none;html=1;rounded=0;" parent="1" edge="1">
          <mxGeometry width="50" height="50" relative="1" as="geometry">
            <mxPoint x="953.36" y="289" as="sourcePoint" />
            <mxPoint x="953.36" y="273" as="targetPoint" />
          </mxGeometry>
        </mxCell>
        <mxCell id="YWq82JBdALTGHb2d7kdh-359" value="" style="endArrow=none;html=1;rounded=0;" parent="1" edge="1">
          <mxGeometry width="50" height="50" relative="1" as="geometry">
            <mxPoint x="945.36" y="289" as="sourcePoint" />
            <mxPoint x="945.36" y="273" as="targetPoint" />
          </mxGeometry>
        </mxCell>
        <mxCell id="YWq82JBdALTGHb2d7kdh-360" value="" style="endArrow=none;html=1;rounded=0;" parent="1" edge="1">
          <mxGeometry width="50" height="50" relative="1" as="geometry">
            <mxPoint x="937.36" y="289" as="sourcePoint" />
            <mxPoint x="937.36" y="273" as="targetPoint" />
          </mxGeometry>
        </mxCell>
        <mxCell id="YWq82JBdALTGHb2d7kdh-361" value="" style="rounded=0;whiteSpace=wrap;html=1;" parent="1" vertex="1">
          <mxGeometry x="771" y="356" width="248" height="87" as="geometry" />
        </mxCell>
        <mxCell id="YWq82JBdALTGHb2d7kdh-362" value="&lt;b&gt;&lt;font style=&quot;font-size: 14px;&quot; face=&quot;Verdana&quot;&gt;CPU&lt;/font&gt;&lt;/b&gt;" style="rounded=0;whiteSpace=wrap;html=1;fillColor=#f5f5f5;strokeColor=#666666;fontColor=#333333;" parent="1" vertex="1">
          <mxGeometry x="801" y="376" width="69" height="48" as="geometry" />
        </mxCell>
        <mxCell id="YWq82JBdALTGHb2d7kdh-363" value="" style="endArrow=none;html=1;rounded=0;" parent="1" edge="1">
          <mxGeometry width="50" height="50" relative="1" as="geometry">
            <mxPoint x="870" y="386" as="sourcePoint" />
            <mxPoint x="888" y="386" as="targetPoint" />
          </mxGeometry>
        </mxCell>
        <mxCell id="YWq82JBdALTGHb2d7kdh-364" value="" style="endArrow=none;html=1;rounded=0;" parent="1" edge="1">
          <mxGeometry width="50" height="50" relative="1" as="geometry">
            <mxPoint x="870" y="392" as="sourcePoint" />
            <mxPoint x="888" y="392" as="targetPoint" />
          </mxGeometry>
        </mxCell>
        <mxCell id="YWq82JBdALTGHb2d7kdh-365" value="" style="endArrow=none;html=1;rounded=0;" parent="1" edge="1">
          <mxGeometry width="50" height="50" relative="1" as="geometry">
            <mxPoint x="870" y="399" as="sourcePoint" />
            <mxPoint x="888" y="399" as="targetPoint" />
          </mxGeometry>
        </mxCell>
        <mxCell id="YWq82JBdALTGHb2d7kdh-366" value="" style="endArrow=none;html=1;rounded=0;" parent="1" edge="1">
          <mxGeometry width="50" height="50" relative="1" as="geometry">
            <mxPoint x="870" y="405" as="sourcePoint" />
            <mxPoint x="888" y="405" as="targetPoint" />
          </mxGeometry>
        </mxCell>
        <mxCell id="YWq82JBdALTGHb2d7kdh-367" value="" style="endArrow=none;html=1;rounded=0;" parent="1" edge="1">
          <mxGeometry width="50" height="50" relative="1" as="geometry">
            <mxPoint x="870" y="412" as="sourcePoint" />
            <mxPoint x="888" y="412" as="targetPoint" />
          </mxGeometry>
        </mxCell>
        <mxCell id="YWq82JBdALTGHb2d7kdh-368" value="" style="endArrow=none;html=1;rounded=0;" parent="1" edge="1">
          <mxGeometry width="50" height="50" relative="1" as="geometry">
            <mxPoint x="783" y="386.83" as="sourcePoint" />
            <mxPoint x="801" y="386.83" as="targetPoint" />
          </mxGeometry>
        </mxCell>
        <mxCell id="YWq82JBdALTGHb2d7kdh-369" value="" style="endArrow=none;html=1;rounded=0;" parent="1" edge="1">
          <mxGeometry width="50" height="50" relative="1" as="geometry">
            <mxPoint x="783" y="392.83" as="sourcePoint" />
            <mxPoint x="801" y="392.83" as="targetPoint" />
          </mxGeometry>
        </mxCell>
        <mxCell id="YWq82JBdALTGHb2d7kdh-370" value="" style="endArrow=none;html=1;rounded=0;" parent="1" edge="1">
          <mxGeometry width="50" height="50" relative="1" as="geometry">
            <mxPoint x="783" y="399.83" as="sourcePoint" />
            <mxPoint x="801" y="399.83" as="targetPoint" />
          </mxGeometry>
        </mxCell>
        <mxCell id="YWq82JBdALTGHb2d7kdh-371" value="" style="endArrow=none;html=1;rounded=0;" parent="1" edge="1">
          <mxGeometry width="50" height="50" relative="1" as="geometry">
            <mxPoint x="783" y="405.83" as="sourcePoint" />
            <mxPoint x="801" y="405.83" as="targetPoint" />
          </mxGeometry>
        </mxCell>
        <mxCell id="YWq82JBdALTGHb2d7kdh-372" value="" style="endArrow=none;html=1;rounded=0;" parent="1" edge="1">
          <mxGeometry width="50" height="50" relative="1" as="geometry">
            <mxPoint x="783" y="412.83" as="sourcePoint" />
            <mxPoint x="801" y="412.83" as="targetPoint" />
          </mxGeometry>
        </mxCell>
        <mxCell id="YWq82JBdALTGHb2d7kdh-373" value="" style="endArrow=none;html=1;rounded=0;" parent="1" edge="1">
          <mxGeometry width="50" height="50" relative="1" as="geometry">
            <mxPoint x="851.36" y="440" as="sourcePoint" />
            <mxPoint x="851.36" y="424" as="targetPoint" />
          </mxGeometry>
        </mxCell>
        <mxCell id="YWq82JBdALTGHb2d7kdh-374" value="" style="endArrow=none;html=1;rounded=0;" parent="1" edge="1">
          <mxGeometry width="50" height="50" relative="1" as="geometry">
            <mxPoint x="843.36" y="440" as="sourcePoint" />
            <mxPoint x="843.36" y="424" as="targetPoint" />
          </mxGeometry>
        </mxCell>
        <mxCell id="YWq82JBdALTGHb2d7kdh-375" value="" style="endArrow=none;html=1;rounded=0;" parent="1" edge="1">
          <mxGeometry width="50" height="50" relative="1" as="geometry">
            <mxPoint x="835.36" y="440" as="sourcePoint" />
            <mxPoint x="835.36" y="424" as="targetPoint" />
          </mxGeometry>
        </mxCell>
        <mxCell id="YWq82JBdALTGHb2d7kdh-376" value="" style="endArrow=none;html=1;rounded=0;" parent="1" edge="1">
          <mxGeometry width="50" height="50" relative="1" as="geometry">
            <mxPoint x="827.36" y="440" as="sourcePoint" />
            <mxPoint x="827.36" y="424" as="targetPoint" />
          </mxGeometry>
        </mxCell>
        <mxCell id="YWq82JBdALTGHb2d7kdh-377" value="" style="endArrow=none;html=1;rounded=0;" parent="1" edge="1">
          <mxGeometry width="50" height="50" relative="1" as="geometry">
            <mxPoint x="819.36" y="440" as="sourcePoint" />
            <mxPoint x="819.36" y="424" as="targetPoint" />
          </mxGeometry>
        </mxCell>
        <mxCell id="YWq82JBdALTGHb2d7kdh-378" value="" style="endArrow=none;html=1;rounded=0;" parent="1" edge="1">
          <mxGeometry width="50" height="50" relative="1" as="geometry">
            <mxPoint x="851.36" y="376" as="sourcePoint" />
            <mxPoint x="851.36" y="360" as="targetPoint" />
          </mxGeometry>
        </mxCell>
        <mxCell id="YWq82JBdALTGHb2d7kdh-379" value="" style="endArrow=none;html=1;rounded=0;" parent="1" edge="1">
          <mxGeometry width="50" height="50" relative="1" as="geometry">
            <mxPoint x="843.36" y="376" as="sourcePoint" />
            <mxPoint x="843.36" y="360" as="targetPoint" />
          </mxGeometry>
        </mxCell>
        <mxCell id="YWq82JBdALTGHb2d7kdh-380" value="" style="endArrow=none;html=1;rounded=0;" parent="1" edge="1">
          <mxGeometry width="50" height="50" relative="1" as="geometry">
            <mxPoint x="835.36" y="376" as="sourcePoint" />
            <mxPoint x="835.36" y="360" as="targetPoint" />
          </mxGeometry>
        </mxCell>
        <mxCell id="YWq82JBdALTGHb2d7kdh-381" value="" style="endArrow=none;html=1;rounded=0;" parent="1" edge="1">
          <mxGeometry width="50" height="50" relative="1" as="geometry">
            <mxPoint x="827.36" y="376" as="sourcePoint" />
            <mxPoint x="827.36" y="360" as="targetPoint" />
          </mxGeometry>
        </mxCell>
        <mxCell id="YWq82JBdALTGHb2d7kdh-382" value="" style="endArrow=none;html=1;rounded=0;" parent="1" edge="1">
          <mxGeometry width="50" height="50" relative="1" as="geometry">
            <mxPoint x="819.36" y="376" as="sourcePoint" />
            <mxPoint x="819.36" y="360" as="targetPoint" />
          </mxGeometry>
        </mxCell>
        <mxCell id="YWq82JBdALTGHb2d7kdh-383" value="&lt;b&gt;&lt;font style=&quot;font-size: 14px;&quot; face=&quot;Verdana&quot;&gt;CPU&lt;/font&gt;&lt;/b&gt;" style="rounded=0;whiteSpace=wrap;html=1;fillColor=#f5f5f5;strokeColor=#666666;fontColor=#333333;" parent="1" vertex="1">
          <mxGeometry x="919" y="376" width="69" height="48" as="geometry" />
        </mxCell>
        <mxCell id="YWq82JBdALTGHb2d7kdh-384" value="" style="endArrow=none;html=1;rounded=0;" parent="1" edge="1">
          <mxGeometry width="50" height="50" relative="1" as="geometry">
            <mxPoint x="988" y="386" as="sourcePoint" />
            <mxPoint x="1006" y="386" as="targetPoint" />
          </mxGeometry>
        </mxCell>
        <mxCell id="YWq82JBdALTGHb2d7kdh-385" value="" style="endArrow=none;html=1;rounded=0;" parent="1" edge="1">
          <mxGeometry width="50" height="50" relative="1" as="geometry">
            <mxPoint x="988" y="392" as="sourcePoint" />
            <mxPoint x="1006" y="392" as="targetPoint" />
          </mxGeometry>
        </mxCell>
        <mxCell id="YWq82JBdALTGHb2d7kdh-386" value="" style="endArrow=none;html=1;rounded=0;" parent="1" edge="1">
          <mxGeometry width="50" height="50" relative="1" as="geometry">
            <mxPoint x="988" y="399" as="sourcePoint" />
            <mxPoint x="1006" y="399" as="targetPoint" />
          </mxGeometry>
        </mxCell>
        <mxCell id="YWq82JBdALTGHb2d7kdh-387" value="" style="endArrow=none;html=1;rounded=0;" parent="1" edge="1">
          <mxGeometry width="50" height="50" relative="1" as="geometry">
            <mxPoint x="988" y="405" as="sourcePoint" />
            <mxPoint x="1006" y="405" as="targetPoint" />
          </mxGeometry>
        </mxCell>
        <mxCell id="YWq82JBdALTGHb2d7kdh-388" value="" style="endArrow=none;html=1;rounded=0;" parent="1" edge="1">
          <mxGeometry width="50" height="50" relative="1" as="geometry">
            <mxPoint x="988" y="412" as="sourcePoint" />
            <mxPoint x="1006" y="412" as="targetPoint" />
          </mxGeometry>
        </mxCell>
        <mxCell id="YWq82JBdALTGHb2d7kdh-389" value="" style="endArrow=none;html=1;rounded=0;" parent="1" edge="1">
          <mxGeometry width="50" height="50" relative="1" as="geometry">
            <mxPoint x="901" y="386.83" as="sourcePoint" />
            <mxPoint x="919" y="386.83" as="targetPoint" />
          </mxGeometry>
        </mxCell>
        <mxCell id="YWq82JBdALTGHb2d7kdh-390" value="" style="endArrow=none;html=1;rounded=0;" parent="1" edge="1">
          <mxGeometry width="50" height="50" relative="1" as="geometry">
            <mxPoint x="901" y="392.83" as="sourcePoint" />
            <mxPoint x="919" y="392.83" as="targetPoint" />
          </mxGeometry>
        </mxCell>
        <mxCell id="YWq82JBdALTGHb2d7kdh-391" value="" style="endArrow=none;html=1;rounded=0;" parent="1" edge="1">
          <mxGeometry width="50" height="50" relative="1" as="geometry">
            <mxPoint x="901" y="399.83" as="sourcePoint" />
            <mxPoint x="919" y="399.83" as="targetPoint" />
          </mxGeometry>
        </mxCell>
        <mxCell id="YWq82JBdALTGHb2d7kdh-392" value="" style="endArrow=none;html=1;rounded=0;" parent="1" edge="1">
          <mxGeometry width="50" height="50" relative="1" as="geometry">
            <mxPoint x="901" y="405.83" as="sourcePoint" />
            <mxPoint x="919" y="405.83" as="targetPoint" />
          </mxGeometry>
        </mxCell>
        <mxCell id="YWq82JBdALTGHb2d7kdh-393" value="" style="endArrow=none;html=1;rounded=0;" parent="1" edge="1">
          <mxGeometry width="50" height="50" relative="1" as="geometry">
            <mxPoint x="901" y="412.83" as="sourcePoint" />
            <mxPoint x="919" y="412.83" as="targetPoint" />
          </mxGeometry>
        </mxCell>
        <mxCell id="YWq82JBdALTGHb2d7kdh-394" value="" style="endArrow=none;html=1;rounded=0;" parent="1" edge="1">
          <mxGeometry width="50" height="50" relative="1" as="geometry">
            <mxPoint x="969.36" y="440" as="sourcePoint" />
            <mxPoint x="969.36" y="424" as="targetPoint" />
          </mxGeometry>
        </mxCell>
        <mxCell id="YWq82JBdALTGHb2d7kdh-395" value="" style="endArrow=none;html=1;rounded=0;" parent="1" edge="1">
          <mxGeometry width="50" height="50" relative="1" as="geometry">
            <mxPoint x="961.36" y="440" as="sourcePoint" />
            <mxPoint x="961.36" y="424" as="targetPoint" />
          </mxGeometry>
        </mxCell>
        <mxCell id="YWq82JBdALTGHb2d7kdh-396" value="" style="endArrow=none;html=1;rounded=0;" parent="1" edge="1">
          <mxGeometry width="50" height="50" relative="1" as="geometry">
            <mxPoint x="953.36" y="440" as="sourcePoint" />
            <mxPoint x="953.36" y="424" as="targetPoint" />
          </mxGeometry>
        </mxCell>
        <mxCell id="YWq82JBdALTGHb2d7kdh-397" value="" style="endArrow=none;html=1;rounded=0;" parent="1" edge="1">
          <mxGeometry width="50" height="50" relative="1" as="geometry">
            <mxPoint x="945.36" y="440" as="sourcePoint" />
            <mxPoint x="945.36" y="424" as="targetPoint" />
          </mxGeometry>
        </mxCell>
        <mxCell id="YWq82JBdALTGHb2d7kdh-398" value="" style="endArrow=none;html=1;rounded=0;" parent="1" edge="1">
          <mxGeometry width="50" height="50" relative="1" as="geometry">
            <mxPoint x="937.36" y="440" as="sourcePoint" />
            <mxPoint x="937.36" y="424" as="targetPoint" />
          </mxGeometry>
        </mxCell>
        <mxCell id="YWq82JBdALTGHb2d7kdh-399" value="" style="endArrow=none;html=1;rounded=0;" parent="1" edge="1">
          <mxGeometry width="50" height="50" relative="1" as="geometry">
            <mxPoint x="969.36" y="376" as="sourcePoint" />
            <mxPoint x="969.36" y="360" as="targetPoint" />
          </mxGeometry>
        </mxCell>
        <mxCell id="YWq82JBdALTGHb2d7kdh-400" value="" style="endArrow=none;html=1;rounded=0;" parent="1" edge="1">
          <mxGeometry width="50" height="50" relative="1" as="geometry">
            <mxPoint x="961.36" y="376" as="sourcePoint" />
            <mxPoint x="961.36" y="360" as="targetPoint" />
          </mxGeometry>
        </mxCell>
        <mxCell id="YWq82JBdALTGHb2d7kdh-401" value="" style="endArrow=none;html=1;rounded=0;" parent="1" edge="1">
          <mxGeometry width="50" height="50" relative="1" as="geometry">
            <mxPoint x="953.36" y="376" as="sourcePoint" />
            <mxPoint x="953.36" y="360" as="targetPoint" />
          </mxGeometry>
        </mxCell>
        <mxCell id="YWq82JBdALTGHb2d7kdh-402" value="" style="endArrow=none;html=1;rounded=0;" parent="1" edge="1">
          <mxGeometry width="50" height="50" relative="1" as="geometry">
            <mxPoint x="945.36" y="376" as="sourcePoint" />
            <mxPoint x="945.36" y="360" as="targetPoint" />
          </mxGeometry>
        </mxCell>
        <mxCell id="YWq82JBdALTGHb2d7kdh-403" value="" style="endArrow=none;html=1;rounded=0;" parent="1" edge="1">
          <mxGeometry width="50" height="50" relative="1" as="geometry">
            <mxPoint x="937.36" y="376" as="sourcePoint" />
            <mxPoint x="937.36" y="360" as="targetPoint" />
          </mxGeometry>
        </mxCell>
        <mxCell id="YWq82JBdALTGHb2d7kdh-404" value="&lt;font style=&quot;font-size: 18px;&quot;&gt;{&quot;CPU&quot;:6}&lt;/font&gt;" style="text;html=1;align=center;verticalAlign=middle;whiteSpace=wrap;rounded=0;fontFamily=Courier New;fontSize=18;fontStyle=1" parent="1" vertex="1">
          <mxGeometry x="915" y="112" width="118" height="30" as="geometry" />
        </mxCell>
        <mxCell id="YWq82JBdALTGHb2d7kdh-405" value="&lt;font face=&quot;Courier New&quot; style=&quot;font-size: 24px;&quot;&gt;&lt;b&gt;{&quot;CPU&quot;:2} * 3, PACK&lt;/b&gt;&lt;/font&gt;" style="text;html=1;align=center;verticalAlign=middle;whiteSpace=wrap;rounded=0;" parent="1" vertex="1">
          <mxGeometry x="250" y="48" width="283" height="30" as="geometry" />
        </mxCell>
        <mxCell id="YWq82JBdALTGHb2d7kdh-406" value="" style="endArrow=classic;html=1;rounded=0;entryX=1;entryY=0.5;entryDx=0;entryDy=0;" parent="1" target="YWq82JBdALTGHb2d7kdh-51" edge="1">
          <mxGeometry width="50" height="50" relative="1" as="geometry">
            <mxPoint x="388" y="85" as="sourcePoint" />
            <mxPoint x="438" y="35" as="targetPoint" />
          </mxGeometry>
        </mxCell>
        <mxCell id="YWq82JBdALTGHb2d7kdh-407" value="" style="endArrow=classic;html=1;rounded=0;entryX=1;entryY=0.5;entryDx=0;entryDy=0;" parent="1" edge="1">
          <mxGeometry width="50" height="50" relative="1" as="geometry">
            <mxPoint x="388" y="86" as="sourcePoint" />
            <mxPoint x="301" y="309" as="targetPoint" />
          </mxGeometry>
        </mxCell>
        <mxCell id="YWq82JBdALTGHb2d7kdh-408" value="" style="endArrow=classic;html=1;rounded=0;entryX=1;entryY=0.5;entryDx=0;entryDy=0;" parent="1" edge="1">
          <mxGeometry width="50" height="50" relative="1" as="geometry">
            <mxPoint x="388" y="85" as="sourcePoint" />
            <mxPoint x="301" y="396.5" as="targetPoint" />
          </mxGeometry>
        </mxCell>
      </root>
    </mxGraphModel>
  </diagram>
</mxfile>
